<svg width="200" height="91" viewBox="0 0 200 91" fill="none" xmlns="http://www.w3.org/2000/svg">
<g clip-path="url(#clip0_277_3746)">
<g clip-path="url(#clip1_277_3746)">
<path d="M199.816 44.0717C199.208 43.099 198.16 41.9744 196.853 42.1416C196.199 42.2176 195.819 42.5975 195.378 43.0535C195.196 43.2206 195.15 43.6006 195.014 43.6766C194.816 43.7981 194.74 43.7677 194.74 43.9957C194.74 44.2997 194.527 44.0869 194.436 44.2997C194.208 44.8468 194.147 45.3635 193.752 45.8954C193.357 46.4121 192.825 46.8224 192.445 47.3544C191.67 48.4182 190.804 49.3301 189.847 50.2419C187.901 52.096 185.758 53.7069 183.448 55.0291C182.187 55.7586 181.078 56.1082 179.664 56.4273C178.509 56.7009 177.141 57.5215 175.986 57.3696C174.755 57.2024 173.388 57.4759 172.202 57.1264C171.564 56.944 170.728 56.8528 170.196 56.4121C169.725 56.017 169.421 56.1538 168.965 55.637C168.129 54.71 167.369 53.555 167.293 52.248C167.248 51.5185 167.248 50.941 167.385 50.2267C167.536 49.406 168.068 49.2997 168.798 49.0565C169.755 48.7221 171.29 49.3149 172.339 49.3149C173.935 49.3149 175.287 49.2085 176.853 48.9349C178.144 48.707 179.36 48.6614 180.622 48.2662C180.834 48.2054 182.035 47.7495 182.035 47.6735C182.035 47.4152 183.372 47.2328 183.555 47.1112C183.889 46.8832 183.843 46.7161 184.299 46.5337C184.543 46.4425 184.619 46.1082 184.862 46.0018C185.439 45.7586 185.85 45.3483 186.29 44.9228C186.761 44.4668 187.445 44.0261 187.704 43.4182C187.856 43.0838 188.068 42.9775 188.388 42.7647C188.676 42.5671 188.57 42.2328 188.813 42.0352C189.816 41.1993 190.242 39.8772 190.682 38.6766C191.154 37.4456 191.64 36.1993 191.807 34.8772C191.959 33.6158 192.05 32.3392 191.883 31.093C191.822 30.6674 191.777 30.2571 191.716 29.8316C191.67 29.5428 191.473 29.8468 191.473 29.4212C191.473 29.1933 191.047 28.7829 191.002 28.5398C190.789 27.5063 189.102 26.2601 188.342 25.5003C187.536 24.6948 186.275 24.1933 185.166 23.8589C183.646 23.403 182.476 23.2206 180.88 23.175C179.573 23.1294 178.479 22.8863 177.202 23.175C175.926 23.4638 174.634 23.8133 173.342 24.1021C172.111 24.3756 171.093 25.1963 169.953 25.7282C168.935 26.1994 168.099 26.9288 167.248 27.6735C166.579 28.251 165.926 28.8285 165.257 29.406C164.938 29.6796 164.071 30.1811 163.95 30.6066C163.813 31.093 163.631 30.8954 163.448 31.1994C163.296 31.4577 163.388 31.6553 163.144 31.9592C162.673 32.5367 162.293 33.175 161.883 33.7981C161.26 34.7556 160.865 35.789 160.242 36.7161C159.391 37.9927 158.995 39.0413 158.524 40.5003C158.175 41.5945 157.658 42.7039 157.111 43.7069C156.913 44.0717 156.701 44.4364 156.503 44.8012C156.412 44.9683 156.366 45.2267 156.321 45.3635C155.85 46.9592 152.749 52.2632 152.385 52.8559C151.777 53.8285 150.424 54.6492 149.543 55.3331C148.737 55.9562 147.461 57.3088 146.305 57.1264C144.953 56.9136 144.391 56.0626 144.543 54.5884C144.801 52.0656 145.667 49.6796 146.731 47.3544C147.233 46.2601 147.658 45.0443 148.038 43.8741C148.479 42.5063 149.087 41.3513 149.74 40.0595C149.983 39.5732 149.999 39.0109 150.226 38.5398C150.5 37.9927 150.758 37.5671 150.956 36.9592C151.154 36.3817 151.442 35.7586 151.533 35.1507C151.655 34.4364 151.67 33.6006 151.898 32.9167C152.081 32.3392 152.43 31.868 152.582 31.2905C152.764 30.6066 152.658 30.0595 152.582 29.3604C152.43 27.9167 152.491 26.7313 151.473 25.6218C151.336 25.4699 151.23 25.0443 151.138 24.9835C150.88 24.8164 150.606 24.6492 150.378 24.4364C149.695 23.7525 149.36 23.5854 148.433 23.2966C147.202 22.9015 145.895 22.9015 144.558 22.7647C144.011 22.7191 143.266 23.1446 142.749 23.3118C142.141 23.5094 141.549 23.6158 140.91 23.7221C139.573 23.9501 138.616 24.7708 137.324 25.1963C136.108 25.6066 134.953 26.5945 133.919 27.324C133.418 27.6887 132.916 27.8863 132.339 28.1142C131.944 28.2662 131.23 27.1264 131.184 26.8073C130.895 24.7252 127.385 22.9015 125.454 22.9015C123.965 22.9015 122.628 22.9775 121.169 23.1902C120.09 23.3422 118.737 23.707 117.947 24.3604C117.521 24.71 116.777 24.8924 116.427 25.2419C115.971 25.6978 115.302 25.6522 114.74 26.017C113.752 26.6553 112.749 27.7799 111.412 27.3392C110.728 27.1112 110.226 26.8225 109.619 26.4273C109.147 26.1234 108.114 26.0018 107.567 25.8042C106.351 25.3787 105.257 24.786 103.995 24.4668C102.673 24.1325 101.853 25.9714 101.381 26.868C101.062 27.4911 100.91 27.8407 100.85 28.5398C100.834 28.7221 100.667 28.8893 100.622 28.9805C100.424 29.2845 100.272 29.4972 100.105 29.8316C99.9985 30.0747 99.6794 31.3665 99.5274 31.4881C99.0107 31.8984 98.7827 32.6887 98.5699 33.3118C98.1444 34.482 97.9316 35.7738 97.4149 36.9136C96.9134 38.0383 95.9712 39.3908 95.8344 40.6066C95.7128 41.6401 94.8921 42.9471 94.3146 43.7981C93.9195 44.3604 93.4484 44.8924 93.0228 45.4243C92.6125 45.941 92.4301 46.6857 92.1718 47.3088C92.035 47.6279 91.4271 48.1446 91.1991 48.479C90.8952 48.9197 90.1657 49.6036 90.0897 50.0595C89.9985 50.5611 89.1019 51.0018 88.7827 51.3969C88.4484 51.8073 88.2508 52.3696 87.8557 52.7951C86.7918 53.9045 85.7736 54.8012 84.5578 55.7282C83.9195 56.2145 82.1414 57.324 81.2751 56.8984C80.2569 56.3969 79.8921 54.6188 80.1505 53.6158C80.8192 50.9258 81.6854 48.3726 82.7949 45.8194C83.19 44.9076 83.6763 43.8285 84.0563 42.7647C84.5578 41.3361 85.1505 40.3179 85.8344 39.0109C86.1535 38.4182 86.2447 37.7951 86.3815 37.1264C86.5335 36.4425 86.8982 35.8042 87.187 35.1659C87.4149 34.634 87.7493 34.1477 87.9772 33.6158C88.2508 32.9623 88.342 32.2328 88.5851 31.5641C89.0563 30.2571 89.8465 29.2693 90.1657 27.9471C90.5 26.5793 90.2417 25.2571 88.6763 24.9987C87.5973 24.8164 86.1535 26.0474 85.1201 26.2601C83.9651 26.5033 82.9165 26.9592 81.9134 27.5823C80.8344 28.251 79.4514 28.7829 78.2964 28.0535C77.2782 27.4 76.4423 26.0322 75.6824 25.1203C75.5304 24.9532 75.2569 24.9987 75.1201 24.8316C74.9377 24.6188 74.725 24.2693 74.4666 24.1629C73.8283 23.8893 73.5092 23.5398 72.8101 23.3574C71.4423 23.0231 70.2569 22.8255 68.8587 22.8711C67.5365 22.9015 66.2751 22.9927 65.0593 23.5094C64.8161 23.6158 64.5274 23.7221 64.2994 23.8133C63.9803 23.9501 63.7523 24.1325 63.4636 24.2693C63.19 24.406 63.0532 24.3604 62.7493 24.5884C62.4301 24.8316 62.1262 25.1203 61.7918 25.3331C61.7006 25.3939 61.5031 25.2875 61.4119 25.3331C61.3359 25.3787 61.3359 25.5915 61.2599 25.637C60.956 25.8042 60.8344 25.8042 60.576 26.017C59.9833 26.5033 59.4666 27.1264 58.9195 27.6735C58.5244 28.0686 58.3268 28.5702 57.9013 28.9957C57.3845 29.5124 56.9438 30.0747 56.4879 30.637C56.1231 31.0778 55.8496 31.5185 55.5456 32.0048C55.3025 32.4 54.725 33.1902 54.725 33.4942C54.725 33.6614 54.4058 34.4668 54.3146 34.4668C54.0259 34.4668 54.0715 35.4547 53.7827 35.4547C53.6459 35.4547 53.342 36.4577 53.19 36.7313C52.9317 37.1872 52.4909 37.8711 52.2022 38.4638C51.6399 39.6492 51.3663 40.9106 50.7432 42.0808C50.5 42.5215 50.88 43.2662 50.3329 43.5398C50.0137 43.7069 49.497 44.8316 49.269 45.1811C48.9803 45.6066 48.7827 46.2905 48.4484 46.5793C47.8709 47.096 47.3693 47.4607 47.0198 48.1446C46.9134 48.3574 46.5639 48.3574 46.4271 48.555C46.1991 48.8741 45.956 49.1933 45.728 49.5124C45.3177 50.0747 44.725 50.5155 44.2234 51.0018C43.3724 51.8073 42.5213 52.6127 41.6095 53.3726C41.1231 53.7829 40.5456 54.1629 40.1201 54.634C39.8617 54.9076 39.6186 55.1963 39.3602 55.4699C39.3602 55.4547 38.7371 55.8194 38.7675 55.8194C38.3724 55.8194 38.494 56.1993 38.2356 56.1993C37.8557 56.1993 37.8709 56.5641 37.5821 56.5793C37.111 56.6249 36.0016 56.7313 36.1687 55.9106C36.4271 54.6948 37.4301 53.6158 37.5821 52.3848C37.7493 51.093 38.6307 49.7556 39.0411 48.4942C39.4818 47.172 40.0593 45.9562 40.4544 44.6036C40.804 43.3878 41.8982 41.3361 41.883 41.3209C42.7341 39.4212 42.8861 37.3392 43.8891 35.5003C45.3177 32.8711 46.4879 30.9562 47.4453 28.1142L47.7341 27.4911C48.2204 27.0048 48.0228 26.9896 48.4636 26.5489C48.7219 26.3057 48.7523 26.017 48.8587 25.6826C48.9499 25.3787 49.3754 25.2267 49.4362 24.9228C49.4514 24.8316 49.6642 24.2997 49.5122 24.0717C49.3602 23.8437 48.9043 23.4942 48.4332 23.327C48.19 23.2358 47.9013 23.1294 47.4301 23.175C46.959 23.2206 45.5304 23.3118 44.573 23.2814C44.1627 23.2814 43.7371 23.251 43.3116 23.2054C43.2204 23.2054 43.1292 23.2358 43.0228 23.251C40.8952 23.3422 38.0988 23.1902 37.6885 23.8893C37.2934 24.5884 36.8982 26.6097 36.4727 28.0383C36.0927 28.4942 35.6976 30.0139 35.6216 30.6066C35.4848 30.941 35.0593 31.7465 35.0593 32.1264C34.6338 33.0838 34.4058 33.8893 33.9651 34.8164C32.962 36.944 31.7918 38.9653 30.8192 41.1082C30.576 41.6553 29.421 44.7556 28.8283 45.865C28.7827 45.941 28.5244 46.3665 28.4484 46.4729C28.266 46.7161 28.0228 46.9288 27.8101 47.1416C27.3389 47.6279 26.883 48.1142 26.4119 48.6006C25.5152 49.5428 24.649 50.713 23.6611 51.5489C22.7797 52.2936 21.7614 52.5215 20.7888 53.2966C19.725 54.1477 18.57 54.8316 17.2478 55.1507C14.7402 55.7434 11.6855 55.713 11.1991 52.5671C10.9712 51.0322 10.9256 49.6796 10.9712 48.1142C11.0016 46.8832 11.4423 45.6218 11.731 44.4364C11.7614 44.33 11.7614 44.2237 11.7766 44.1021C11.7766 42.5975 12.3693 40.9562 12.9772 39.5732C12.9924 39.5276 13.0076 39.4972 13.0228 39.4516C12.7493 39.6188 12.4909 39.8316 12.2326 39.9835C11.5639 40.3939 11.6551 39.1933 11.6551 38.9501C11.0016 39.0109 11.3815 40.0139 11.0168 40.0139C10.4089 40.0139 10.3633 40.5155 10.8648 40.7282C11.4879 40.9866 10.6672 41.4881 10.3025 41.5945C10.1201 41.6553 9.86175 41.5033 9.72497 41.6401C9.5122 41.8224 9.29944 42.02 9.08667 42.2024C10.1505 42.9167 10.1201 42.9319 9.61858 44.1021C9.5274 44.0565 9.39062 44.0261 9.31463 43.9501C9.01068 43.9957 8.70673 44.0565 8.40278 44.1021C8.50916 44.33 8.69153 44.4668 8.93469 44.482C8.79792 44.7404 8.266 44.71 8.2508 44.862C8.20521 45.2571 8.22041 45.5762 7.87086 45.8498C7.73409 45.7282 7.0502 45.3331 7.035 45.1659C7.0046 44.7252 7.6733 44.8772 7.77968 44.6948C7.96205 44.3908 8.22041 44.33 8.37238 44.0413C8.53956 43.7221 8.20521 43.251 8.266 42.9015C8.31159 42.6431 8.78272 42.2784 8.70673 42.02C8.60035 41.6249 8.34199 41.1082 8.34199 40.6978C8.34199 40.4243 8.50916 39.8012 8.8739 40.1659C9.36023 40.6522 9.32983 40.4851 9.78576 40.0139C9.55779 39.938 8.67634 39.5276 8.50916 39.6948C7.96205 40.2419 7.88606 39.9987 7.18697 40.0443C6.79184 40.0747 5.97117 39.9835 6.60947 39.482C6.89822 39.2389 7.29336 38.5246 7.49092 39.33C7.71889 39.0565 7.96205 38.8741 7.87086 38.4942C7.06539 38.6462 6.54868 38.9653 5.81919 38.7981C5.84959 39.2389 6.09275 39.9987 5.66722 40.3179C5.60643 40.3635 5.25688 40.1811 5.04412 40.3179C4.77056 40.5003 4.55779 40.6674 4.22345 40.6826C4.22345 40.3027 4.34503 39.9683 4.60339 39.6948C4.69457 39.6036 5.10491 39.5732 5.1353 39.4668C5.1657 39.3908 4.93773 38.9349 4.86175 38.9349C3.61555 38.8133 3.23561 38.4942 3.23561 39.8468C2.27816 39.4668 3.63074 38.3118 3.31159 37.8407C3.03804 37.4304 4.11706 37.5063 4.26904 37.5063C4.78576 37.5063 4.43621 36.944 4.98333 36.8984C4.83135 37.4152 5.04412 37.6583 5.28728 38.1142C5.7888 37.9167 5.18089 36.093 5.1505 35.5003C5.1201 34.9532 5.86479 35.0443 5.7736 34.6948C5.65202 34.1933 5.08971 34.1325 5.40886 33.5398C5.86479 32.7191 5.83439 33.5702 6.48789 33.327C6.95901 33.1446 6.53348 32.2936 6.91342 32.248C8.19001 32.096 8.73713 32.0504 9.75536 31.2753C9.75536 32.1568 10.3937 31.0626 10.4393 31.0474C10.9712 30.8346 11.0776 31.3969 11.5791 30.8954C12.2934 30.1811 13.6459 30.4547 13.2508 28.9197C13.2052 28.7525 12.8709 28.7373 12.8709 28.5398C12.8709 28.3118 12.962 27.9927 12.7797 27.8559C12.3845 27.5367 11.9286 27.7951 11.6551 27.3848C11.3359 26.8984 11.2751 26.5033 11.1687 25.9106C11.0472 25.2419 10.5152 25.7282 10.0745 25.5611C10.6368 24.8772 10.1657 24.1629 10.8952 23.6766C11.3663 23.3574 12.2478 23.9045 12.8861 23.8133C12.3997 24.2389 12.8101 25.5763 12.6581 26.2449C13.0836 26.3361 13.3116 26.2753 13.418 26.7009C13.4788 26.944 13.494 27.0352 13.4484 27.2784C13.4484 27.3544 13.19 27.7951 13.19 27.7799C13.4332 29.1173 13.9651 26.9288 13.9803 26.8984C14.5274 26.3513 12.7341 25.8498 13.3876 25.0443C13.7523 24.6036 13.6915 24.6188 13.4332 24.1173C13.2964 23.8285 13.8435 23.5094 14.0867 23.5246C13.7979 24.1933 14.4818 24.6188 15.0289 24.4668C15.5 24.3301 15.4696 24.2845 15.6672 23.8133C15.7128 23.6918 16.0927 23.0535 15.6976 23.0535C15.2417 23.0535 14.1171 23.3422 13.8587 23.0535C13.6155 22.7799 13.7675 22.2936 13.8283 22.0048C13.8891 21.7313 13.6459 21.3361 13.5548 21.0778C14.0715 21.0778 14.4666 21.4577 14.8769 21.7313C15.3177 22.0352 15.4848 21.6097 15.88 22.1264C15.956 22.2328 16.1687 22.6279 16.2903 22.6735C16.7158 22.8407 16.6399 22.4759 16.9742 22.4456C17.3693 22.4152 18.0228 22.6887 18.038 23.1294C17.3086 23.1294 17.2022 22.8559 16.7918 23.4638C16.3663 24.0869 16.6855 24.3908 16.1839 24.9987C15.7736 25.5003 15.956 25.0443 15.4544 25.1811C15.1505 25.2571 14.8313 25.4851 14.5578 25.637C13.9651 25.9258 14.8162 26.5337 14.5882 27.0048C14.4818 27.2024 14.5122 27.4759 14.497 27.7039C14.4818 27.9319 14.2386 28.175 14.2538 28.3574C14.3146 28.7981 14.2082 29.7708 14.421 30.0443C14.3754 29.9835 16.0776 30.789 15.3481 30.9714C14.7554 31.1082 13.9195 31.5337 13.342 31.1842C13.5244 31.5337 13.6915 31.8984 13.8739 32.248C14.1779 32.0352 14.3906 31.7921 14.7858 31.868C14.7098 32.2936 14.5882 33.1294 14.1779 33.3878C13.4332 33.8589 13.5244 32.8407 13.038 32.7799C13.114 32.3696 13.2964 31.9288 13.038 31.5641C12.5061 32.096 11.883 32.4608 12.5061 33.2358C12.8557 33.6766 13.0988 33.1902 12.9469 33.9045C12.8101 34.5276 13.114 34.4516 13.6459 34.4516C13.9347 34.4516 14.0107 34.8164 14.269 35.0595C14.3754 35.1659 14.5274 35.1963 14.6946 35.2419C15.1201 34.1933 15.5912 33.175 16.1839 32.2176C16.1839 32.1872 16.1687 32.172 16.1687 32.1264C16.1687 31.4425 16.5791 31.2145 16.7918 30.5914C17.035 29.862 17.2934 29.2693 17.6733 28.6006C20.2569 24.0717 23.2052 19.5884 27.111 16.017C28.3876 14.8468 29.6946 13.7981 31.1231 12.7951C32.5517 11.7921 34.1019 11.4881 35.7736 11.1994C36.3055 11.2297 36.8982 11.3817 37.3389 11.4273C37.7341 11.4729 38.1444 11.5033 38.5396 11.5489C38.9651 11.5945 38.7979 11.6857 39.1475 11.8832C40.4848 12.6431 40.3633 14.1325 40.1657 15.5611C40.1049 16.0626 39.6186 17.3392 39.8769 17.7039C40.1353 18.0687 42.2478 18.4486 43.5851 18.479C43.7219 18.4486 43.8587 18.4334 43.9955 18.4334C44.1627 18.4334 44.3754 18.4486 44.5578 18.4638C44.7402 18.4638 44.9073 18.4638 45.0897 18.4334C45.2417 18.4334 45.4241 18.403 45.576 18.3878C47.0958 18.099 48.3724 17.7039 49.9073 17.2784C49.9377 17.2632 49.9833 17.248 50.0137 17.2176C50.5456 16.868 50.7584 16.8984 50.9712 16.4729C51.1839 16.0322 51.3967 15.9866 51.5639 15.3179C51.731 14.6644 52.2174 10.8346 51.8678 8.69176C51.6703 7.50634 50.728 6.5489 50.1657 5.45467C49.5882 4.34525 48.7219 3.22063 47.6429 2.58233C47.0958 2.26319 46.731 1.86805 46.1383 1.59449C45.5 1.29054 44.8769 1.03218 44.2082 0.789021C43.6003 0.561057 43.1292 0.54586 42.5365 0.393884C42.1718 0.302699 41.807 0.226711 41.4575 0.135526C41.2143 0.0747353 40.8344 0.272304 40.5608 0.317896C40.1049 0.378687 39.2386 0.0899329 38.7523 0.0443402C38.114 -0.0164501 37.5061 -0.0620428 36.8678 -0.0772403C35.5152 -0.122833 34.4058 0.165921 33.0684 0.409082C32.5061 0.515465 31.959 0.591453 31.4119 0.743428C30.9864 0.865009 30.5608 0.971392 30.1201 1.09297C29.9529 1.13856 29.801 1.18416 29.6338 1.21455C29.4362 1.26015 29.6338 1.42732 29.5274 1.47291C29.0259 1.71607 28.3876 1.74647 28.0076 1.92884C28.0836 1.88325 27.6277 2.35437 27.6277 2.23279C27.6277 2.12641 27.0046 2.65832 26.9438 2.68872C26.5639 2.88629 26.032 3.00787 25.5152 3.31182C25.2721 3.46379 25.1049 3.67656 24.8921 3.82853C24.7706 3.91972 24.649 3.75255 24.5274 3.90452C24.421 4.0261 24.3146 4.23887 24.1627 4.31486C22.962 4.87717 22.187 5.59145 21.2143 6.39692C20.7128 6.82246 20.0745 7.20239 19.6794 7.73431C19.2234 8.32701 18.7675 8.50938 18.2964 9.0413C17.4149 10.0139 16.1687 10.9714 15.4241 12.0352C15.2873 12.2328 15.2569 12.5367 15.0745 12.6887C14.8617 12.8559 14.4362 13.0383 14.4362 13.327C14.4362 13.631 14.1323 13.5246 14.1323 13.9045C14.1323 14.1629 13.6915 14.2237 13.6459 14.5732C13.5851 14.9987 13.3876 14.6796 13.3876 15.1203C13.3876 15.1203 13.0988 15.7434 13.0836 15.7434C12.8861 16.0018 11.8678 16.8073 11.8678 17.1112C11.8678 17.3696 10.9256 18.327 10.7432 18.5854C10.5912 18.8133 10.3481 19.0261 10.3481 19.3149C10.3481 19.71 10.1961 19.2845 10.1201 19.4668C10.0593 19.5884 10.1657 19.7708 10.0897 19.8924C9.45141 21.0018 8.67633 22.0808 8.12922 23.251C6.9894 25.6826 5.7736 28.0383 4.69457 30.5155C4.58819 30.7738 4.45141 30.9714 4.29944 31.1234C4.13226 31.4881 3.96509 31.8376 3.76752 32.1872C3.34199 33.5094 2.79488 34.8164 2.20217 36.1082C2.15658 36.2753 2.12618 36.4577 2.08059 36.6249C2.20217 36.5641 0.71281 43.7221 0.621625 44.6796C0.484846 46.017 0.180895 47.3696 0.0897097 48.7069C-0.00147571 50.0139 0.196093 51.1842 0.317673 52.4608C0.469649 53.9805 0.728007 55.2267 1.18393 56.6857C1.36631 57.248 1.59427 57.7951 1.80703 58.3574C1.91342 58.6158 1.98941 58.9501 2.14138 59.1933C2.20217 59.3148 2.41494 59.4212 2.52132 59.5124C2.6733 59.634 2.52132 59.786 2.6277 59.9076C3.06843 60.3787 3.35719 61.0322 3.81311 61.3361C4.04108 61.4881 4.20825 61.7921 4.37542 62.0048C4.72497 62.4455 4.77056 62.2632 5.18089 62.5215C5.54564 62.7495 5.34807 62.8863 5.84959 62.9927C6.15354 63.0535 6.3663 63.2206 6.63986 63.3878C7.21737 63.7525 8.14442 63.8437 8.79792 64.0261C10.0897 64.3908 11.4879 64.2389 12.8101 64.1933C13.3724 64.1781 13.8891 64.1021 14.4362 64.0261C15.2265 63.9197 15.6064 63.7221 16.2599 63.4182C17.3693 62.9015 18.5396 62.4456 19.5426 61.8832C20.3937 61.4121 22.4909 59.8468 22.3237 61.9744C22.2326 63.2054 21.3815 64.5124 20.5456 65.3483C19.5578 66.3361 18.3268 66.2905 17.1718 66.8984C16.8222 67.0808 16.8222 67.2936 16.3815 67.4304C16.0624 67.5215 15.88 67.7343 15.5456 67.8559C14.8465 68.0838 14.1475 68.3422 13.4484 68.5702C12.2782 68.9805 11.1231 69.6644 9.98333 70.1507C9.81615 70.2267 9.67937 70.4395 9.46661 70.5307C9.20825 70.637 8.85871 70.713 8.67634 70.9106C8.31159 71.2753 7.21737 71.7009 7.11099 72.1264C7.0198 72.5063 6.24472 72.9471 5.91038 73.2206C5.56083 73.5246 5.22649 73.8285 4.87694 74.1173C4.57299 74.3908 4.69457 74.6036 4.48181 74.8468C4.29944 75.0443 3.9043 75.0595 3.85871 75.3483C3.82831 75.5307 3.8739 75.6826 3.69153 75.6826C3.44837 75.6826 3.66114 75.8346 3.58515 75.9866C3.46357 76.2297 3.08363 76.8224 2.91646 77.2632C2.35415 78.7221 2.32375 79.862 2.29336 81.4273C2.29336 81.9592 2.55172 82.3392 2.6581 82.8103C2.81007 83.555 3.05324 84.1325 3.2812 84.786C3.55476 85.5611 3.79792 85.8498 4.39062 86.4425C4.92254 86.9744 4.96813 87.4759 5.66722 87.8255C6.09275 88.0382 6.4119 88.6158 6.70065 88.7677C7.30855 89.0565 8.02284 89.2541 8.66114 89.5124C9.81615 89.9835 11.0624 90.0747 12.3086 90.0443C13.6155 90.0139 15.2569 90.1051 16.4879 89.6036C16.7766 89.4972 17.9013 88.9805 18.0684 88.7677C18.3572 88.4334 18.4028 88.3726 18.8283 88.2814C18.9499 88.251 19.3602 88.1446 19.4514 88.0838C19.6794 87.9167 19.8617 87.6127 20.1201 87.4304C20.3481 87.248 20.8192 87.1416 20.9712 87.02C21.1991 86.8376 21.2751 86.4425 21.5031 86.2601C21.5791 86.1993 21.8526 86.2145 21.959 86.1993C22.1262 86.169 22.035 86.0474 22.1414 85.941C23.2204 84.8164 23.9347 83.8589 24.7098 82.5063C25.3481 81.4121 26.0472 80.3787 26.6399 79.2389C26.8982 78.7525 27.1414 78.2662 27.3845 77.7799C27.6581 77.248 27.9468 76.1234 28.4636 75.7738C28.6915 75.6218 28.8283 74.6644 28.9195 74.3452C29.1171 73.6766 29.2842 72.9775 29.5274 72.324C30.0441 70.941 30.5608 69.5732 31.0775 68.1902C31.2143 67.8255 31.5943 67.4152 31.8526 67.1112C32.3085 66.5641 33.0228 66.1234 33.57 65.6674C33.9347 65.3635 34.4818 65.0139 34.9377 64.8924C35.2873 64.8012 35.6368 64.71 35.9712 64.6188C36.1231 64.5732 35.9712 64.3756 36.0927 64.2997C36.2447 64.2085 36.4575 64.2997 36.5943 64.1781C37.6277 63.3726 38.8587 62.7799 39.8921 62.02C40.0137 61.9288 40.1201 61.7465 40.2113 61.6401C40.3329 61.4881 40.4393 61.6401 40.576 61.5641C40.652 61.5185 40.652 61.3057 40.728 61.2601C40.8192 61.2145 41.0168 61.3209 41.1079 61.2601C41.5335 60.9562 42.0502 60.0291 42.5517 59.9532C43.0684 59.8772 43.4788 59.33 43.9347 58.9653C44.497 58.5094 45.0745 58.0686 45.5608 57.5367C46.5639 56.4425 47.5365 55.2571 48.6459 54.2693C48.5699 54.9076 48.6763 55.5914 48.7219 56.2297C48.7675 56.9136 48.9955 57.3392 49.0411 57.9927C49.0715 58.4334 49.0107 58.555 49.3602 58.8285C49.5882 59.0109 49.3602 59.33 49.573 59.558C49.9985 59.9835 50.0897 60.6674 50.5 61.1234C51.5335 62.3088 52.263 63.0231 53.7371 63.5246C54.8617 63.9045 55.956 64.2541 57.187 64.1781C58.5092 64.1021 60.0441 64.0869 61.3055 63.6158C61.7766 63.4486 62.2174 63.0535 62.6733 62.7951C63.266 62.4608 64.193 62.1568 64.573 61.5641C64.9225 61.0474 65.6976 60.789 66.2295 60.4851C66.7766 60.1811 67.111 59.71 67.7037 59.406C68.8131 58.8133 69.8313 60.5458 70.2569 61.3817C70.4696 61.8224 70.8496 61.6857 71.0927 62.0352C71.2295 62.2176 71.9438 62.7343 71.9438 62.8255C71.9438 62.9471 73.6003 63.7221 73.9499 63.8589C75.4392 64.3908 77.5973 64.3908 79.1475 64.1629C80.8192 63.9045 82.6125 63.6917 83.9499 62.6127C84.2538 62.3696 84.7402 62.3848 85.0745 62.1872C85.3937 62.0048 85.6368 61.7009 85.9256 61.4881C86.6399 60.9866 87.3997 60.5307 88.0532 59.9683C87.6277 61.1234 87.1718 62.7343 88.7219 63.2206C89.9833 63.6158 91.1687 63.327 92.4605 63.327C93.8891 63.327 95.2417 63.6006 96.6399 63.327C98.0532 63.0534 98.8283 62.1568 99.2538 60.8802C99.4362 60.3179 99.7857 59.6948 99.9833 59.0717C100.196 58.4182 100.439 58.3422 100.682 57.6431C101.093 56.4425 101.594 55.2875 102.05 54.1021C102.567 52.7647 103.068 51.4273 103.524 50.0595C103.555 49.9835 103.722 49.8924 103.783 49.6644C103.828 49.4668 103.874 48.8893 104.102 48.8893C104.33 48.8893 104.406 47.9015 104.543 47.6279C105.029 46.6553 105.53 45.5914 105.834 44.558C105.986 44.0109 106.078 43.2206 106.381 42.7495C106.594 42.4455 106.792 42.248 106.792 41.868C106.792 41.4881 107.005 41.4729 107.172 41.1386C107.704 40.1355 107.916 38.9957 108.388 38.099C108.98 36.944 110.075 35.9866 111.017 35.1203C111.792 34.406 112.886 33.555 113.919 33.403C114.147 33.3726 114.269 33.0535 114.467 32.9319C114.71 32.7799 115.105 32.7191 115.378 32.6279C115.971 32.4304 116.579 32.2632 117.202 32.324C118.555 32.4455 119.345 33.3422 119.026 34.6796C118.889 35.2723 118.616 35.8802 118.464 36.5033C118.327 37.0352 119.071 37.4455 118.798 38.0231C117.536 37.4 117.141 40.0595 116.837 40.8802C116.609 41.5033 116.336 42.1112 116.078 42.7191C115.88 43.1902 115.941 44.1933 115.591 44.482C114.634 45.2419 114.679 46.944 113.859 47.7647C113.494 48.1142 113.433 49.0109 113.266 49.4972C113.008 50.2267 112.688 50.941 112.4 51.6705C111.929 52.8559 111.564 54.0869 111.093 55.2723C110.606 56.5033 109.938 57.4911 109.558 58.7373C109.223 59.8012 108.129 61.017 108.752 62.1568C109.147 62.8711 109.375 63.175 110.242 63.327C110.956 63.4486 111.792 63.327 112.521 63.327C113.874 63.327 115.074 63.4942 116.412 63.2662C117.035 63.1598 117.688 63.1598 118.312 63.1142C118.859 63.0686 119.391 62.3544 119.695 61.9288C120.485 60.789 120.926 59.406 121.427 58.1294C121.503 57.9319 121.457 57.6735 121.549 57.4911C121.64 57.2936 121.898 57.1872 121.989 56.9744C122.293 56.2905 122.597 55.713 122.688 54.9835C123.008 52.4455 124.786 50.5155 125.439 47.9927C125.774 46.7313 126.321 45.5155 126.685 44.2389C126.746 44.0109 127.005 43.9349 127.096 43.7373C127.217 43.479 127.217 43.1902 127.354 42.9319C127.719 42.248 127.81 41.6401 128.084 40.9258C128.175 40.6978 128.342 40.6522 128.418 40.3179C128.509 39.8772 128.616 39.4516 128.707 39.0109C128.813 38.5246 129.451 37.9775 129.74 37.5215C130.029 37.0504 130.515 36.6857 130.91 36.2905C131.412 35.789 131.913 35.0899 132.491 34.71C132.795 34.5124 132.947 34.634 133.251 34.33C133.494 34.0869 133.646 33.9805 133.95 33.8285C134.315 33.6462 134.573 33.4334 134.847 33.2662C135.424 32.9319 136.746 32.324 137.734 32.2024C139.163 32.02 139.999 32.8255 140.211 34.2085C140.348 35.1355 139.816 37.1264 139.315 37.8711C137.81 40.1811 136.944 42.9775 135.91 45.5459C135.5 46.5793 135.014 47.9015 134.938 48.8437C134.831 50.0291 134.087 51.2146 133.935 52.4304C133.752 53.9045 133.616 55.3331 133.57 56.8073C133.555 57.4304 133.676 57.9319 133.813 58.5398C133.874 58.8133 133.874 59.1021 133.889 59.3908C133.919 59.9076 134.147 59.71 134.147 60.1203C134.147 60.2115 134.421 60.8346 134.558 61.017C135.044 61.6553 135.454 62.2176 136.078 62.7191C136.959 63.4334 138.6 63.8893 139.695 64.0869C142.035 64.5124 145.363 64.4212 147.369 63.0231C147.886 62.6583 148.509 62.4 149.056 62.096C149.482 61.868 149.953 61.8376 150.333 61.5793C150.865 61.2297 151.533 60.9258 151.974 60.4547C152.202 60.2115 152.415 59.8924 152.673 59.6796C152.992 59.4364 153.023 59.7404 153.312 59.2389C153.433 59.0261 154.36 58.5246 154.527 58.3422C154.923 57.9319 155.971 55.9866 156.929 55.0443C157.187 56.1994 157.111 56.8376 157.764 57.7951C158.555 58.9349 159.421 60.0443 160.424 60.9866C161.412 61.9136 162.385 62.6583 163.692 62.9775C164.831 63.2662 166.062 64.1021 167.233 64.1629C170.029 64.2845 172.688 64.482 175.47 64.0261C176.625 63.8437 177.932 63.8589 179.026 63.4334C180.242 62.9623 181.442 62.4304 182.673 61.9744C183.236 61.7617 183.828 61.5945 184.36 61.3361C184.603 61.2146 185.698 60.789 185.789 60.637C185.986 60.3027 186.67 59.862 187.02 59.6036C187.506 59.2237 188.114 58.9349 188.646 58.6006C190.5 57.4607 192.233 55.713 193.707 54.1173C194.011 53.7981 194.254 53.2662 194.512 53.0383C194.923 52.6583 195.333 52.2936 195.698 51.8528C196.093 51.3817 196.442 50.941 196.746 50.4243C196.853 50.2267 196.944 49.9683 197.126 49.8316C197.385 49.634 197.278 49.33 197.476 49.1629C198.008 48.7373 198.296 48.4486 198.646 47.8711C198.752 47.6887 199.345 46.7769 199.33 46.7769C199.239 46.7769 199.999 45.6522 200.029 45.5459C200.196 44.9683 200.044 44.5428 199.923 43.9653L199.816 44.0717ZM184.254 41.0474C184.011 41.0778 183.494 40.941 183.494 40.6522C183.494 39.7556 183.722 40.5307 184.102 40.0595C184.603 39.4212 182.992 39.0261 184.482 38.8437C184.482 39.3908 184.816 40.8194 184.254 41.0474ZM184.102 36.2601C183.251 35.6826 184.527 35.3331 184.938 35.1963C184.938 35.941 184.755 35.9106 184.102 36.2601ZM187.901 38.2358C187.476 38.6766 187.035 38.1142 186.655 38.4942C186.138 39.0109 185.85 39.2845 185.85 38.3878C185.85 38.175 186.047 37.2328 186.442 37.5215C186.853 37.8255 187.354 38.2358 187.901 38.0079V38.2358ZM182.658 26.7617C182.871 26.8073 183.236 26.9896 183.418 26.8528C183.919 26.5033 183.798 26.6857 184.284 26.6857C184.831 26.6857 185.865 26.1994 185.302 27.1872C185.09 27.5519 184.968 27.4304 184.558 27.3544C184.36 27.324 183.707 27.3392 183.889 27.7343C183.98 27.9319 184.315 28.403 184.178 28.5854C183.904 28.9501 184.132 29.0869 184.421 29.3756C185.302 30.2571 185.044 28.7221 185.591 28.5094C185.804 28.4182 186.184 28.7221 186.321 28.8589C186.594 29.1325 186.837 29.0109 187.233 28.9805C188.236 28.8893 188.464 28.7829 188.22 29.8316C188.144 30.1659 188.6 30.2419 188.54 30.4851C188.418 30.8802 188.266 31.2145 188.418 31.6249C188.008 31.6553 187.4 30.6826 187.126 31.3969C186.913 31.9288 187.886 32.4607 187.354 32.9927C188.068 33.099 187.734 32.324 188.038 31.9288C188.296 32.324 190.439 32.9319 188.722 33.1446C188.798 33.5094 188.768 33.8741 189.102 34.0565C188.509 34.7708 187.886 34.6796 187.005 34.7252C186.503 34.7556 187.035 35.3483 187.172 35.5155C187.476 35.865 187.916 35.6522 188.372 35.5914C188.737 35.5459 188.433 36.3969 188.464 36.5641C188.555 36.944 189.071 36.9896 189.223 37.324C189.482 37.9167 189.269 37.9167 188.676 37.9927C188.312 38.0383 188.433 37.2936 188.433 37.096C187.992 37.1872 187.369 37.4 187.217 36.7921C186.868 36.9744 186.518 37.1416 186.154 37.324C186.154 37.0352 185.454 36.2601 186.169 36.2601C186.518 36.2601 186.685 36.3817 186.685 36.017C186.685 35.6522 186.761 35.5914 186.427 35.5003C185.926 35.3635 185.637 34.9835 185.105 34.8164C184.923 34.7708 185.074 34.4972 184.801 34.5124C184.512 34.5428 184.527 34.9531 184.117 34.8924C184.588 34.2541 183.418 33.3726 184.801 33.2966C184.36 32.9775 183.342 32.5975 183.813 31.9288C183.6 31.8832 183.327 31.8832 183.16 32.0352C182.947 32.248 182.628 31.8984 182.4 31.7769C181.974 31.5337 181.336 31.2297 181.64 30.637C181.792 30.3483 182.02 30.7586 182.065 30.8954C182.172 31.2449 182.293 31.2601 182.628 31.1538C183.357 30.941 182.187 30.5155 182.217 30.0139C181.989 30.0899 181.761 30.1659 181.533 30.2419C181.533 30.0443 182.309 29.4364 182.597 29.558C182.84 29.6492 183.16 30.9258 183.266 31.1842C183.403 31.5185 183.965 30.3939 184.269 30.5459C184.36 30.5914 184.801 31.9136 184.801 30.7434C184.801 30.1355 184.923 29.71 184.239 29.71C184.056 29.71 183.646 29.8012 183.54 29.634C183.236 29.0869 183.357 29.3756 182.901 29.2541C182.369 29.1173 181.761 28.9045 181.336 29.2541C180.743 29.7404 181.002 28.2054 181.017 27.9623C180.789 28.0383 180.561 28.1142 180.333 28.1902C180.576 27.8407 180.409 27.5063 180.333 27.1264C180.819 27.096 180.819 27.6887 181.169 27.5823C181.518 27.4759 181.518 26.7009 181.549 26.4425C181.123 26.5033 180.546 27.4304 180.333 26.5945C180.606 26.4425 181.093 25.8954 181.366 26.1842C181.913 26.7921 181.913 27.0352 182.688 26.7465L182.658 26.7617ZM180.302 24.406C180.743 24.4972 181.184 24.6036 181.625 24.6948C181.777 24.7252 181.533 25.3787 181.336 25.4547C181.002 25.5611 180.439 25.8954 180.226 25.6218C180.014 25.3331 180.257 24.71 180.302 24.406ZM179.315 25.9258C179.573 25.713 180.181 25.865 180.15 26.2297C180.09 26.7769 179.36 26.5185 179.087 26.4577C179.163 26.2905 179.208 26.0778 179.315 25.9258ZM178.783 29.8772C178.874 29.406 179.193 29.7252 179.391 29.482C179.679 29.1173 179.619 28.9653 179.467 28.5094C179.907 28.8285 180.044 28.7829 179.801 29.2693C179.649 29.558 179.801 29.8924 179.619 30.0291C179.33 30.2419 179.011 30.0291 178.707 30.3331C178.433 30.6066 178.144 30.6674 178.023 30.1811C178.281 30.0747 178.524 29.9835 178.783 29.8772ZM171.26 38.8437C171.685 38.2966 172.126 37.7495 172.552 37.2176C172.886 36.8073 172.916 36.3057 173.236 35.8954C173.433 35.637 173.843 35.4395 174.102 35.2571C174.239 35.1507 174.254 34.8924 174.421 34.7556C174.907 34.3301 175.485 33.5854 176.078 33.3118C177.157 32.8255 178.722 31.8376 179.999 32.3392C181.275 32.8407 181.625 34.5428 180.986 35.6066C180.348 36.6857 180.12 37.9015 179.451 38.9805C179.087 39.5732 178.722 40.1659 178.342 40.7434C177.962 41.3361 177.385 41.3361 176.883 41.6097C176.67 41.7161 176.594 41.9592 176.351 42.0352C175.941 42.1872 175.53 42.324 175.135 42.4759C174.497 42.7039 173.813 42.8255 173.144 42.9775C171.807 43.2966 170.941 42.9471 170.014 42.0048C169.755 41.7465 171.138 39.1477 171.275 38.8589L171.26 38.8437ZM41.4119 7.85589C41.4575 8.26622 41.5183 8.66136 41.5639 9.07169C40.3481 9.33005 40.2569 7.62793 41.4119 7.85589ZM35.1809 9.07169C34.345 9.10209 34.345 8.47899 34.345 7.85589C35.0137 8.00786 35.1201 8.47899 35.1809 9.07169ZM33.1292 8.3878C32.2934 8.3878 32.2934 7.88628 32.2934 7.172C32.962 7.32397 33.0684 7.7951 33.1292 8.3878ZM28.19 5.57625C28.6003 5.54586 29.4666 5.3027 29.3298 6.03218C28.4788 5.62185 28.6763 6.91364 28.6459 7.39996C28.1748 7.20239 27.9924 5.941 28.19 5.57625ZM28.266 8.76774C28.342 8.15984 27.187 8.12945 27.8101 7.82549C28.4484 7.50635 28.9043 8.02306 29.4362 8.37261C29.6186 8.49419 30.4544 7.21759 30.576 8.08385C30.5912 8.23583 30.6216 8.95011 30.7736 8.93492C31.1079 8.90452 31.3663 8.75255 31.5335 9.10209C31.7918 8.91972 32.5517 8.09905 32.6733 8.87413C32.7949 9.6796 31.883 9.63401 31.4423 9.63401C30.804 9.63401 31.9438 10.0747 31.883 10.3179C31.8374 10.5307 31.6399 10.8042 31.4727 10.9258C31.1535 11.1538 30.956 11.017 30.7888 11.0018C29.9681 10.8954 30.2417 10.6066 30.3937 9.92276C30.4696 9.57321 29.6186 8.98051 29.3602 8.95011C28.4484 8.82853 28.3572 8.73735 27.7189 9.37565C27.3389 9.75559 26.7766 9.33005 26.9286 8.79814C27.4301 8.49419 27.7493 8.64616 28.2964 8.79814L28.266 8.76774ZM25.6824 7.09601C26.0168 6.95923 26.8374 7.05042 26.7006 7.55194C26.5791 8.05346 25.7888 7.52154 25.5304 7.39996C25.576 7.30878 25.6216 7.1872 25.6824 7.09601ZM24.6186 10.8954C25.2721 10.4547 25.2417 10.1051 26.0016 10.2419C26.2751 10.2875 26.7158 11.6857 27.111 11.2905C27.4605 10.941 27.3845 9.86197 27.6581 9.70999C28.2204 9.42124 28.7219 9.634 29.3298 9.74039C29.0259 10.5459 29.1475 11.017 28.266 10.8042C28.3724 11.093 28.2508 11.2905 28.114 11.5641C28.0532 11.6705 27.8861 11.7921 27.7949 11.8832C27.6885 11.9896 27.8861 12.2632 27.8101 12.324C27.3693 12.7039 26.2143 11.9744 26.5943 11.4881C26.0775 11.4881 25.8648 11.0018 25.4241 11.2601C25.0289 11.4881 24.269 11.6249 24.6338 10.8802L24.6186 10.8954ZM20.9104 17.0504C20.956 16.8073 21.0927 16.4577 21.0472 16.1994C21.0016 15.8802 20.6976 15.8194 20.7432 15.4395C21.0016 15.1355 21.4423 15.7282 21.6855 15.941C21.8526 16.0778 22.6733 15.637 22.8709 15.5611C23.1596 15.4547 23.4028 15.2723 23.4028 14.9228C23.4028 14.2845 23.3572 14.3149 24.0107 14.2389C23.8435 13.8741 24.2082 13.5398 24.5426 13.403C24.3754 13.3574 23.9195 13.3574 23.8283 13.2054C23.7371 13.0535 23.4028 12.2936 23.2508 12.3848C22.8101 12.6279 22.6429 12.6127 22.6429 13.099C22.6429 13.2358 22.9165 13.3422 22.9468 13.479C22.9924 13.6918 22.9468 13.9501 22.9468 14.1629C22.9468 15.0747 21.8374 14.1781 21.7007 13.7829C21.4575 13.1598 22.0502 13.631 22.1262 13.1902C22.1718 12.9167 22.3997 12.4759 22.1262 12.3392C22.263 12.0656 22.7797 11.7009 23.0532 11.868C23.7371 12.2784 23.4788 11.3513 24.0107 11.3513C24.4058 11.3513 24.3906 11.9744 24.3906 12.2632C24.3906 12.5063 25.5304 12.8103 25.7584 12.9015C26.3359 13.1294 25.7888 13.2814 25.7584 13.7829C25.7584 13.9349 25.9712 14.2693 25.9104 14.3908C25.8648 14.482 25.3481 14.634 25.2417 14.5884C24.8465 14.3908 24.3298 13.9805 24.1475 14.5884C23.9499 15.2571 24.2234 15.1811 24.8313 15.4547C24.573 15.8802 24.4058 16.2601 23.8283 16.1082C23.2052 15.9562 22.9468 16.1082 22.6733 16.6705C22.4605 17.096 21.9438 16.6705 21.6551 17.0504C21.5335 17.2024 21.7007 17.5823 21.5791 17.7343C21.3511 18.0079 20.8952 17.6583 20.8952 18.1902C20.7128 17.9775 20.6672 17.7647 20.6368 17.5063C20.576 17.0048 20.8648 17.3696 20.9104 17.0656V17.0504ZM18.9347 14.2389C19.0563 13.707 19.9377 13.3726 20.0745 14.0869C20.2265 14.8772 18.7067 14.7556 18.3268 14.7708C18.5244 14.5884 18.7371 14.4212 18.9347 14.2389ZM17.4909 15.8346C17.9772 15.4699 18.4484 15.5611 18.9955 15.6978C19.6946 15.865 19.6946 16.3665 19.6946 16.9744C19.1323 16.6553 18.6763 16.093 18.1748 16.5945C17.3389 17.4304 17.4909 16.6705 17.4909 15.8346ZM17.0806 18.0383C17.6733 18.0383 17.5365 18.3118 17.6429 18.8741C17.111 18.9045 17.0198 18.4334 16.4271 18.7221C16.3967 18.3726 15.9256 18.6158 15.8952 18.2662C16.2143 17.9167 16.6551 18.0383 17.0806 18.0383ZM14.7554 18.631C14.9529 19.0413 15.4089 18.6766 15.7432 18.555C15.6672 19.1021 15.9256 19.5732 16.1231 20.0747C15.8496 20.1355 14.4058 18.8893 14.3754 18.555C14.497 18.5854 14.649 18.5854 14.7554 18.631ZM7.84047 28.2054C8.22041 28.1142 9.45141 29.3149 9.36022 28.5854C9.29943 28.1294 8.84351 28.4334 8.98029 27.9471C9.05627 27.6735 9.04108 27.3544 9.28424 27.172C9.69457 26.8376 10.7736 26.3817 11.0776 27.172C11.2599 27.6583 11.3207 27.8407 10.7432 27.8407C10.3177 27.8407 9.99852 28.0838 9.75536 28.4486C9.14746 29.3604 10.7432 28.8437 11.0624 28.7069C11.2447 28.631 12.7493 29.4364 12.7189 29.5884C12.6581 29.9228 12.0502 29.6188 11.883 29.862C11.6703 30.1811 11.9438 30.5763 11.4119 30.5763H10.804C10.6064 30.5763 10.5912 30.8954 10.4393 30.9562C10.0897 31.093 9.60339 31.0626 9.22345 31.1082C9.19305 30.713 9.29943 29.3756 8.69153 29.482C8.14442 29.5732 8.06843 29.71 7.82527 29.2085C7.61251 28.7677 7.68849 28.6918 7.85567 28.2206L7.84047 28.2054ZM4.04108 33.3726C4.64898 33.1902 4.96813 34.2541 4.26904 34.4364C3.32679 34.6796 3.85871 33.7373 4.04108 33.3726ZM3.12922 35.8042C3.20521 35.6066 3.38758 34.7404 3.58515 34.7404C3.93469 34.7404 4.31463 34.8164 4.497 35.1203C4.84655 35.713 4.31463 35.8346 3.8891 36.0018C3.72193 36.0626 3.67634 36.3817 3.61555 36.5489C3.53956 36.7465 3.23561 36.8376 3.05324 36.944L3.12922 35.8042ZM7.99244 41.8073C7.47573 41.4577 5.89518 42.2936 5.94077 41.0474C6.95901 40.5459 7.52132 40.865 7.99244 41.8073ZM3.73713 42.1872C3.41798 41.1234 5.46965 41.9896 5.7888 42.1112C5.53044 42.5215 5.1353 42.7647 4.75536 43.0383C4.39062 43.3118 4.87694 43.7373 4.72497 44.1629C3.93469 44.0109 4.19305 42.7647 3.73713 42.1872ZM5.7888 46.0474C5.46965 46.3209 5.04412 46.8376 4.55779 46.7161C3.55475 46.4729 4.42102 46.5337 4.42102 45.9866C4.42102 45.7434 4.05627 44.9531 4.58819 45.1355C5.10491 45.3027 6.01676 45.3179 5.7888 46.0626V46.0474ZM5.63682 43.3118C5.7584 43.3726 5.91038 43.4486 6.01676 43.5398C6.3967 43.5094 6.57907 43.3118 6.47269 42.9319C6.92862 42.9775 6.98941 43.479 7.15658 43.8437C6.86782 43.9197 6.62466 44.0413 6.47269 44.2997C6.13834 44.0413 5.62162 43.7981 5.63682 43.3118ZM6.09275 50.1507C6.36631 49.9228 7.0502 49.71 7.15658 49.4668C7.93165 49.862 6.35111 50.789 7.46053 50.9106C7.26296 51.2449 6.80703 52.2024 6.51828 51.4577C6.42709 51.2297 6.54868 50.9714 6.47269 50.7586C6.3967 50.4851 6.07755 50.5611 6.09275 50.1507ZM6.62466 57.6735C5.92558 57.6279 6.73105 55.8346 7.68849 56.7617C7.33895 57.0656 6.97421 57.3696 6.62466 57.6735ZM7.68849 48.099C7.90126 48.7829 7.0502 49.0869 6.51828 49.2389C6.15354 49.3452 5.92558 49.2845 6.00156 48.8893C6.06235 48.5702 6.62466 48.5854 6.77664 48.3422C7.0046 47.9927 6.67026 46.5793 7.46053 46.5945C7.94685 46.5945 7.6581 47.0656 7.53652 47.2784C7.26296 47.7343 7.35415 47.7039 7.68849 48.1142V48.099ZM8.9043 51.2145C9.48181 51.2601 9.32983 52.5671 9.36022 52.9623C9.16266 52.8407 9.08667 52.8863 9.05627 52.5823C8.72193 52.8103 8.266 52.7495 8.22041 52.3544C8.19001 52.1112 8.76752 51.4425 8.9043 51.2145ZM9.5122 60.3331C8.64594 60.865 7.74928 59.9835 8.22041 59.1173C8.60035 59.2237 8.63074 59.4668 8.72193 59.786C8.78272 59.9987 9.37542 60.1051 9.57299 60.1659C9.5426 60.2115 9.5274 60.2723 9.497 60.3179L9.5122 60.3331ZM10.0441 59.1933C10.7128 58.2662 10.728 59.8468 10.728 60.1811C10.2113 60.3179 9.70977 59.6644 10.0441 59.1933ZM16.0472 77.1872C15.4241 77.9167 15.1961 78.7981 14.5274 79.4668C13.8131 80.1811 13.2204 81.1538 12.3238 81.6401C11.1535 82.2632 10.2873 81.8528 9.48181 80.9106C8.73712 80.0291 9.20825 79.0261 9.72497 78.1598C10.0137 77.6887 10.4089 77.6735 10.5608 77.1112C10.652 76.7769 11.3967 76.6097 11.6095 76.1842C12.0198 75.3483 13.494 75.3331 14.0411 74.786C14.3906 74.4364 14.9225 74.3148 15.3633 74.1477C15.9104 73.9349 15.956 73.7981 16.3815 74.2845C17.1718 75.1963 16.4271 76.1842 16.0472 77.1872ZM30.2417 50.5307C30.3633 50.3331 30.652 49.5428 30.8496 49.4668C31.2599 49.3149 31.4271 49.9683 31.7614 49.9987C31.6551 50.1659 31.0775 50.4699 31.0775 50.4547C31.0775 50.9106 30.9712 51.093 30.7584 51.5033C30.2265 52.5063 30.1657 50.9562 30.2417 50.5307ZM30.2113 54.4668C29.9833 53.8741 30.1049 53.7525 30.3785 53.175C30.728 52.4304 31.0775 51.6553 31.8374 52.2024C32.0806 52.3848 33.3268 53.7829 32.2022 53.2206C31.1839 52.7039 30.8648 54.482 31.5335 54.634C31.4879 54.7252 31.1991 55.713 31.1839 55.713C30.7432 55.941 30.3025 56.1538 29.8617 56.3817C29.497 55.8498 29.9073 55.6218 29.2842 55.3939C28.5092 55.1203 28.5851 54.9531 28.3572 54.1477C28.2204 53.631 28.7827 53.479 29.2386 53.7221C29.6186 53.9197 29.9225 54.6188 29.9985 55.0139C30.2721 55.0595 30.5608 55.1203 30.8344 55.1659C30.8344 54.6948 30.3177 54.8164 30.1961 54.4668H30.2113ZM29.0259 51.0626C29.0411 51.4577 29.7858 52.4304 29.4818 52.5823C29.2842 52.6887 27.9924 51.9592 27.962 51.7465C28.038 51.0626 28.4332 51.1538 29.0259 51.0626ZM27.1262 54.862C27.0958 54.6948 27.1262 54.4972 27.1262 54.3301C27.4301 54.482 27.7645 54.786 28.114 54.634C28.1444 55.3787 27.4605 55.5155 27.1262 54.862ZM27.962 57.9015C27.7797 57.9775 26.3967 58.5246 26.7918 57.8255C27.1262 57.2328 27.7645 57.1112 27.962 57.9015ZM26.2751 52.4C26.5183 52.3696 27.5061 52.0808 27.5213 52.1264C27.6125 52.5823 28.0988 53.1294 27.7645 53.4486C27.3845 53.8285 26.9286 53.555 26.7462 53.099C26.2903 53.6158 26.1383 53.7829 26.0624 54.4668C25.4241 54.4212 25.4544 53.5702 25.4544 53.099C25.576 52.5823 25.804 52.4608 26.2751 52.3848V52.4ZM25.2265 54.862C25.956 54.7708 25.6216 55.4851 26.0624 55.6978C26.2143 55.7738 27.2934 55.3635 26.8222 56.0018C26.5183 56.4121 25.9408 56.0778 25.5912 55.9714C25.0441 55.789 25.2265 55.4243 25.2265 54.862ZM26.2903 61.4729C26.3511 61.7161 26.8222 62.5215 26.7766 62.6431C26.6095 63.1446 25.9712 62.7191 25.6824 62.6127C25.9104 62.1416 25.6824 61.7769 26.0624 61.3209C26.1383 61.3665 26.2143 61.4273 26.2903 61.4729ZM19.6186 78.555C19.4514 78.6917 19.3754 78.8741 19.3906 79.0869C18.7675 78.7373 18.8739 77.7191 19.1627 77.1872C19.7858 77.3392 19.6642 78.0838 19.6186 78.555ZM27.6581 67.3088C27.4301 68.0535 27.4909 68.5094 27.5821 69.2845C27.3845 69.1933 26.5639 69.4212 26.6095 69.634C26.7007 70.1507 26.9286 70.7282 26.7158 71.2145C26.4879 71.7617 26.0016 71.3361 25.88 71.6553C25.7432 72.0352 25.7888 72.172 25.3785 72.172C25.1353 72.172 24.8465 72.172 24.8465 71.868C24.8465 71.7313 23.8131 71.4273 24.2082 72.3088C24.4818 72.9167 25.0897 72.0048 25.3329 72.7343C25.4089 72.9471 26.5791 73.2358 26.0775 73.4942C25.6368 73.7069 25.1049 73.8437 25.2265 74.4516C24.573 74.4516 24.4514 73.8589 23.8587 73.7677C23.8587 73.8741 23.9347 74.558 23.8587 74.6036C23.5851 74.7708 23.494 73.9653 23.3268 73.9197C22.7645 73.7981 23.0532 74.4668 23.1444 74.6644C23.2204 74.8468 22.4453 75.1051 22.2782 75.1963C22.2478 75.2115 22.111 75.4851 21.959 75.8042C21.959 75.4243 21.3815 75.0139 21.1231 74.7556C20.9408 74.9835 20.7736 75.2115 20.5912 75.4395C21.3663 75.8042 20.3937 76.093 20.3633 76.5033H21.2751C20.9712 75.9106 21.6551 76.1234 21.883 75.9562C21.7158 76.3057 21.5791 76.6553 21.5791 76.7009C21.731 77.5215 21.8982 78.1294 21.7158 78.9349C21.1839 78.8589 21.1231 78.2662 20.9408 77.8559C20.6824 77.248 20.5608 77.3088 19.8921 77.1416C19.2994 76.9896 19.5274 76.6401 19.5122 76.0626C19.5122 75.7434 19.649 75.8194 19.4666 75.3939C19.3754 75.1811 19.3146 75.0139 19.3602 74.7708C19.4818 74.862 20.0745 75.4851 20.1961 75.4547C20.5608 75.3635 20.0593 74.8012 20.0441 74.6188C20.0137 74.3148 20.2721 73.9197 20.1961 73.631C20.1961 73.6006 19.7858 72.8407 19.7858 72.8407C19.649 72.7191 19.2234 72.4607 19.3754 72.2024C19.5578 71.868 20.0593 72.1264 20.1961 72.324C20.5304 72.7951 20.5456 72.8863 21.1079 72.9471C21.4271 72.9927 21.3967 73.555 21.4271 73.7981C20.956 73.4638 20.8648 73.4182 20.2873 73.4942C21.0016 74.33 21.2143 75.0443 21.883 73.9197C22.0806 73.5702 22.2934 73.0383 22.7949 73.0383C23.2356 73.0383 23.4028 73.6158 23.8587 73.2662C23.57 72.7647 23.0076 72.6279 22.4909 72.5823C22.3389 72.5823 22.3541 72.3848 22.1718 72.4607C22.0958 72.4911 21.807 72.6735 21.731 72.6583C21.4575 72.5823 21.1383 72.3392 21.3511 72.0048C21.4879 71.7921 21.1231 71.5489 20.9712 71.3817C20.6368 71.017 20.6824 71.0322 20.8192 70.5611C20.9864 69.9987 21.4879 70.7434 21.959 70.8194C22.1718 70.3179 21.5335 70.1659 21.5791 69.7556C21.6247 69.2997 22.2782 69.4972 22.111 68.9197C22.4149 68.9957 22.7189 69.1325 22.7949 69.4516C23.5244 68.8893 23.4788 68.8893 23.266 67.9927C23.2052 67.7495 23.4788 67.4911 23.4788 67.248C23.4788 66.9288 23.266 66.5033 23.1748 66.1842C23.8131 66.1538 25.8344 66.2753 25.9104 65.2723C25.956 64.7252 24.9681 64.5884 24.9985 64.2389C25.0593 63.7829 25.2873 63.175 24.9985 62.7647C25.3937 62.9775 26.5639 63.327 26.5943 63.7829C26.6399 64.5884 26.7006 65.3787 26.7462 66.1842C27.0654 66.1538 27.3541 66.169 27.6125 65.9866C27.7493 65.8954 28.418 65.2875 28.6459 65.5003C28.9195 65.7586 28.2508 66.093 28.266 66.3361C28.266 66.6097 28.7371 66.9136 28.7979 67.248C28.418 67.2784 28.038 67.2936 27.6581 67.324V67.3088ZM31.5335 64.6644C31.2903 64.8468 29.801 64.8316 29.6794 64.6036C29.573 64.4212 28.9955 62.3696 28.494 62.9927C28.5396 62.9471 28.5396 64.0261 28.5092 64.1325C28.418 64.4972 28.4484 65.0747 28.0532 65.1659C27.7037 65.2419 27.0654 65.5611 26.9286 65.0443C26.7918 64.5124 27.6581 64.6644 27.9468 64.6644C27.7645 64.1781 27.6277 63.8893 27.7037 63.3726C27.7341 63.1598 28.0532 63.1294 27.8709 62.9167C27.8405 62.8863 27.4453 63.1142 27.263 62.9167C27.1414 62.7799 27.4605 62.4608 27.263 62.3392C26.9742 62.1568 26.883 62.1416 26.8374 61.8225C26.7614 61.3361 26.4879 61.017 26.4119 60.4851C27.5061 60.4851 27.2478 59.9683 27.2478 59.0109C27.2478 58.479 28.4028 58.4638 28.2356 57.7495C28.7219 57.8559 29.1019 57.9015 29.5882 57.9015C30.3329 57.9015 29.3754 58.631 29.2994 58.8133C29.2386 58.9653 29.5122 59.1629 29.4058 59.3452C29.2994 59.5428 29.1931 59.8924 28.9803 59.9987C28.5092 60.2723 28.0836 60.3635 27.5517 60.4851C27.8557 60.5762 28.1748 60.6826 28.4788 60.7738C28.9043 60.9106 28.2052 61.4121 28.2356 61.5489C28.2964 61.9592 28.7979 61.8528 29.0715 61.8528C29.1019 61.8528 29.5578 62.2936 29.6946 62.3544C30.2873 62.6583 30.8192 61.5793 30.8192 62.7191C30.8192 63.0838 30.7128 63.479 30.9712 63.7677C31.1991 64.0261 31.6703 64.2997 31.5031 64.6644H31.5335ZM32.9013 57.2936C32.4301 57.3544 31.7614 57.2936 31.3815 57.5975C31.6854 57.8559 32.5365 58.5398 32.4149 58.9805C32.2174 59.8012 31.4727 59.5732 30.6976 59.6492C30.728 59.4516 31.2295 58.7981 31.1991 58.7525C31.0927 58.5398 30.9864 58.327 30.88 58.099C30.804 57.9623 31.0472 57.8711 31.0775 57.7343C31.1231 57.5671 31.1991 56.8984 31.3055 56.8984C31.7918 56.8984 31.9894 56.9288 32.2934 56.5185C31.4879 56.4425 31.8222 56.1842 32.2934 55.9106C31.5335 55.3635 33.2052 55.5762 32.4453 56.2145C32.7949 56.3969 33.0836 56.8984 32.9013 57.2784V57.2936ZM32.7037 49.6948C32.4301 49.6948 32.0502 49.2389 32.1566 49.0109C32.3693 48.7677 32.6885 48.8133 32.9924 48.7829C32.9924 49.2085 33.19 49.6948 32.7037 49.6948ZM34.497 52.7343C34.3298 52.5671 34.0107 52.3544 33.9347 52.1264C33.8283 51.7617 33.9955 51.6401 33.9651 51.3665C33.9499 51.2449 33.1596 49.786 33.7371 50.0291C34.1779 50.2115 34.1779 50.2115 34.2842 50.6674C34.4058 51.1993 34.6946 50.8194 34.9529 51.0626C35.3481 51.4425 34.725 52.2328 34.497 52.7343ZM55.5304 51.5185C55.1961 50.7738 54.4666 51.3969 54.0107 51.6705C53.9347 51.3817 55.1505 50.5914 55.4544 50.4547C56.731 49.862 56.0927 51.5641 55.5304 51.5185ZM56.7158 57.8103C56.7614 57.9927 56.0471 58.175 56.1383 57.8559C56.2751 57.4 56.4271 56.944 56.5639 56.4881C56.6399 56.2449 57.2478 56.4273 57.111 56.8984C56.6855 57.2632 56.5487 57.248 56.7006 57.7951L56.7158 57.8103ZM83.8587 38.1598C83.7371 38.2814 83.2052 38.6766 83.2812 38.8285C83.4484 39.1933 83.7371 39.5732 83.5547 39.9835C83.2508 39.8316 81.8982 39.3604 82.5517 38.7829C82.7037 38.6462 82.8709 38.5094 83.038 38.3574C83.1596 38.251 83.0228 37.9775 83.0988 37.9167C83.2356 37.8103 83.7523 37.8103 83.9347 37.7647C83.9043 37.8863 83.9043 38.0383 83.8587 38.1446V38.1598ZM77.7797 31.6249C78.114 31.5489 78.6763 31.5489 78.7675 31.2449C79.3146 31.4729 78.8739 32.1872 78.7675 32.6127C78.4484 32.4152 77.5061 32.0808 77.7797 31.6249ZM65.0289 30.941C65.9104 30.5763 66.0168 30.2571 66.9286 30.5611C66.6854 31.0626 66.3967 30.6218 66.0927 30.8042C65.7128 31.0474 65.3481 31.3513 64.8769 31.3969C64.9225 31.2449 64.9529 31.0778 65.0289 30.941ZM64.649 33.2966C64.5122 33.4334 63.2052 34.7556 63.2812 33.9045C63.5851 33.3422 63.9955 32.6583 64.649 33.2966ZM71.7766 44.7556C70.9712 47.0656 70.1049 49.6796 68.2812 51.4273C66.4575 53.1902 64.0715 55.637 61.2903 54.938C60.9712 54.862 60.1809 54.1629 60.0593 53.8589C59.725 53.099 59.7554 52.4304 59.725 51.5945C59.7098 50.9866 59.801 50.4243 59.8769 49.8164C59.9225 49.4668 59.9681 49.1325 60.0137 48.7829C60.0137 48.8589 60.3025 48.5246 60.3329 48.3726C60.6976 46.944 61.0927 45.5611 61.5639 44.1477C61.7614 43.555 61.9894 42.9775 62.2022 42.4C62.3997 41.8832 62.8405 41.4425 62.9772 40.9258C63.1292 40.3939 63.5092 40.0595 63.7523 39.558C63.8587 39.3604 64.1475 39.2541 64.1778 39.0261C64.2386 38.6158 64.269 38.5398 64.5426 38.2358C64.8465 37.8863 64.6946 37.8559 64.8465 37.5215C64.8465 37.5215 65.2873 36.9896 65.2417 37.0048C65.6976 36.7313 65.652 36.0474 66.1231 35.8042C66.4575 35.637 67.0654 34.634 67.339 34.3452C67.5517 34.1173 68.2812 33.4334 68.5244 33.403C69.1323 33.2966 69.5274 32.8255 70.1201 32.6583C70.6368 32.5063 71.3207 32.5063 71.8526 32.6127C73.1444 32.8711 73.7371 33.6006 74.6034 34.6036C74.9681 35.0139 74.8921 35.9866 74.9225 36.4729C74.9377 36.7465 74.8009 37.0656 74.7554 37.3392C74.6794 37.6887 74.4818 37.8255 74.4058 38.0686C74.2994 38.3574 74.3602 38.6917 74.2538 38.9805C74.1475 39.2541 73.9195 39.482 73.7979 39.7404C73.494 40.3787 73.3116 41.093 73.0836 41.7465C72.9924 41.9896 72.7341 42.1568 72.6581 42.4C72.5821 42.6583 72.7189 42.9775 72.6581 43.2358C72.5973 43.4638 72.3389 43.7981 72.263 44.0869C72.187 44.3908 71.9742 44.5428 71.7462 44.7556H71.7766ZM72.4605 51.2145C72.263 51.2601 72.0502 51.3209 71.8526 51.3665C71.8982 50.9106 72.5061 50.7738 72.8709 50.6522C73.0836 50.5763 73.342 50.4243 73.5547 50.5003C73.8435 50.5914 73.6459 51.017 74.1171 50.7586C74.573 50.5307 74.3906 49.6188 73.8891 49.6188C73.3876 49.6188 72.7037 49.4212 72.5973 48.7829C72.5517 48.479 73.1596 47.8103 73.3876 48.0535C73.6763 48.3726 74.421 48.8893 74.5122 49.3149C74.6642 50.0291 74.7858 50.0443 75.424 50.4243C75.5456 50.4851 75.0289 51.4881 75.1809 51.8224C74.4362 51.9288 74.9073 50.789 74.193 51.1842C73.4788 51.5793 73.2356 51.4273 72.4453 51.2145H72.4605ZM73.7523 54.786C73.7827 54.1933 74.8617 53.9349 74.801 54.3756C74.725 54.8316 73.8283 55.3179 73.7523 54.786ZM75.5 58.5854C75.2113 58.5246 74.5122 58.5398 74.2842 58.3574C74.1019 58.2054 74.0411 57.4607 73.9803 57.2176C74.193 57.1872 74.725 56.9744 74.8769 57.1264C74.9985 57.248 75.3481 57.9015 75.2721 57.9015C75.3785 57.9015 75.576 57.2176 75.7584 57.5975C75.8952 57.8711 75.2873 58.1446 75.5 58.5854ZM77.7797 54.1781C77.6885 53.9501 77.5213 53.8589 77.3997 53.7221C76.5943 53.9501 76.731 55.3787 76.8678 56.0018C76.5943 55.7738 75.7432 55.2723 75.652 54.938C75.5456 54.5428 76.0016 53.5702 76.1079 53.1598C76.2295 52.7039 75.728 52.5975 75.6824 52.0808C75.6064 51.3057 76.0472 51.868 76.3207 51.3665C76.883 51.6857 76.7158 51.6553 76.8526 52.2024C76.883 52.324 77.2934 53.1598 77.3845 53.1902C77.7797 53.3422 78.1596 52.7343 78.2508 53.4486C78.2964 53.7677 78.2052 54.4212 77.7645 54.1629L77.7797 54.1781ZM79.8313 48.251C79.725 48.175 79.5578 48.175 79.4514 48.099C79.4514 48.7677 78.9955 49.2389 78.5243 48.5398C77.9924 47.7343 77.7341 48.3878 77.0198 48.251C77.1718 49.2085 77.3237 49.938 77.7037 50.8346C77.2326 51.0018 75.7888 50.7282 76.1079 50.0747C76.2447 49.786 76.9286 49.862 76.8222 49.4668C76.731 49.0717 76.1535 48.9805 76.3359 48.555C75.7584 48.707 75.5912 48.9349 75.2721 48.403C75.0289 48.0079 74.7554 47.7951 74.2842 48.099C74.2083 47.7495 74.1323 47.3848 74.0563 47.0352C73.9195 47.2328 73.6915 47.3392 73.4484 47.3392C73.6003 46.7769 73.1292 46.868 72.7645 47.0352C73.1444 46.5337 73.5092 46.1841 73.9955 45.789C74.421 45.4395 74.4058 44.9683 74.2842 44.4516C74.7402 44.4516 74.5882 44.862 74.8921 45.0595C75.2417 45.2875 75.5152 44.9835 75.804 44.9835C76.1535 44.9835 76.2295 45.2723 76.4727 44.9531C76.6854 44.6644 76.9438 44.3756 77.111 44.0413C77.1718 43.8893 77.6125 43.2206 77.5517 43.0838C77.3997 42.7191 77.0958 43.1142 77.0654 43.327C77.0046 43.8437 76.2143 44.4364 75.652 44.6036C75.424 44.1173 75.5 43.9045 75.8952 43.6006C76.5487 43.099 76.5943 43.175 76.3359 42.4L77.5517 42.324C76.9894 41.0474 77.9924 41.6553 77.8101 42.02C77.6429 42.3544 78.0076 42.5063 77.8861 42.7799C77.7493 43.099 77.8861 43.6006 77.6885 43.7525C78.9347 43.8437 78.1748 41.3817 78.6003 41.169C78.494 40.9258 78.1292 40.9106 78.0684 40.789C77.9772 40.6066 78.0684 40.1659 78.0684 39.9532C78.5547 40.1203 79.2842 40.6522 79.2842 39.8772C79.2842 39.33 78.6459 39.1173 78.4484 38.5854C78.6003 38.5854 78.7523 38.4334 78.9043 38.4334C78.5851 37.7951 78.494 37.3848 78.418 36.6553C78.3572 36.0778 77.9165 35.9106 77.9468 35.3027C77.9772 34.634 77.9924 33.9957 78.114 33.3422C78.3116 32.2784 78.6459 32.8559 78.9043 33.5702C79.1627 33.4182 79.4058 33.2662 79.6642 33.1142C80.0289 33.5702 79.2386 33.8589 78.9043 34.1021C79.0107 34.2389 79.2842 34.7404 79.4362 34.786C79.9377 34.9076 79.7706 34.3604 80.2417 34.6492C80.4544 34.7708 80.5 35.3179 80.7128 35.3179C81.0927 35.3179 80.8496 34.6644 80.804 34.482C80.7432 34.2237 80.9408 33.8285 81.0016 33.5702C81.0623 33.3422 80.5152 33.0535 81.1079 33.0535C81.807 33.0535 82.0806 32.6735 82.3845 32.0656C83.2508 32.5519 82.2174 33.2814 82.4301 33.6614C82.7797 34.2693 83.5699 34.558 84.2842 34.8012C84.193 35.2723 83.7979 35.0443 83.4484 34.9683C83.19 34.9228 82.7493 35.2419 82.5365 35.3483C82.3845 35.4243 81.5335 35.6978 81.4727 35.8498C81.3511 36.2145 81.8526 36.4881 82.1414 36.3513C82.5061 36.169 82.7341 35.8954 83.038 36.1842C83.2812 36.4273 83.342 36.7921 82.9013 36.8376C81.883 36.9592 82.111 37.7191 82.1566 38.5702C81.5639 38.6006 79.7554 38.4486 79.8161 39.406C79.8617 40.4395 79.8161 41.5337 80.4848 42.3544C80.728 42.0504 80.4848 41.5945 80.7128 41.3665C80.8496 41.2297 80.7888 41.017 80.7888 40.8346C80.7888 40.6522 81.1687 40.5307 81.3207 40.4547C81.4423 40.7282 81.5335 41.2601 81.8526 41.2905C81.7614 41.5945 81.655 41.9136 81.5639 42.2176C81.5335 42.3392 81.3359 42.2784 81.3207 42.3544C81.2599 42.5367 81.3663 42.7647 81.3207 42.9623C81.2599 43.251 80.9712 43.479 80.9408 43.7677C80.8952 44.1477 80.8496 44.5428 80.7888 44.938C80.2721 44.4972 79.8921 44.2237 79.2994 44.6796C78.9803 44.9228 78.8587 45.1203 78.4788 45.0443C78.1748 44.9835 77.9468 44.8772 77.6885 45.1051C77.9013 45.3179 78.19 45.5003 78.2204 45.789C78.7067 45.789 79.0563 45.0139 79.4362 45.1811C79.2082 45.4091 78.9499 46.0474 79.345 46.2753C79.9377 46.6401 80.0441 46.6097 80.0441 47.3088C79.4058 47.4151 79.6794 47.7799 79.8161 48.2206L79.8313 48.251ZM101.321 42.4759C100.819 42.4759 100.242 41.8528 100.637 41.4881C101.26 40.9106 101.685 42.02 101.321 42.4759ZM104.208 35.7282C103.737 36.1234 103.752 36.1842 103.752 36.7921C103.403 36.7617 102.688 35.9106 103.144 35.6826C103.692 35.4091 104.102 35.3787 104.284 34.7404C104.831 34.8924 104.375 35.3635 104.208 35.7282ZM109.299 32.6127C108.175 32.4607 108.676 31.2146 108.919 30.5611C109.603 30.6218 109.071 31.0778 109.071 31.4729C109.071 31.8832 109.467 32.1872 109.299 32.6127ZM115.515 55.0139C115.652 54.5732 116.746 54.8468 116.655 55.3179C116.397 55.4851 115.333 55.637 115.515 55.0139ZM117.643 49.0109C117.081 47.9927 118.768 48.8285 119.087 48.7829C118.98 49.6948 118.129 48.8133 117.643 49.0109ZM119.087 54.1021C118.995 54.1933 118.828 54.2541 118.707 54.3301C118.555 54.0717 118.479 53.6766 118.175 53.6462C118.6 52.9623 119.406 53.4486 119.087 54.1021ZM119.239 36.6401C119.451 35.7738 119.695 34.3756 120.485 35.6826C120.85 36.2905 119.923 35.6826 119.923 36.0322C119.923 36.5641 119.862 36.9592 119.239 36.6401ZM119.923 52.2024C119.74 52.02 119.619 51.3665 119.923 51.2145C120.287 51.0322 120.682 51.5489 120.91 51.7465C120.576 51.8984 120.257 52.0504 119.923 52.2024ZM121.822 51.6097C121.427 51.5641 121.473 50.9714 121.442 50.6978C121.807 50.6674 122.719 51.0474 122.81 51.2297C122.582 51.7769 122.339 51.6705 121.822 51.6249V51.6097ZM122.506 46.8832C122.688 47.0048 122.856 47.1416 123.038 47.2632C122.886 47.4152 122.719 47.5823 122.567 47.7343C122.461 47.8407 122.187 47.7191 122.126 47.7951C121.959 48.0079 121.974 48.707 121.822 49.0109C121.412 48.7677 121.412 48.1598 121.67 47.7951C121.442 47.9319 120.986 48.0838 120.88 48.327C120.667 48.8437 120.53 48.9197 120.272 48.3878C120.15 48.1598 120.789 47.7343 120.865 47.4759C121.017 46.9288 121.123 47.0048 121.67 46.8832C121.518 46.4881 121.29 46.093 121.29 45.6522C121.29 45.0139 121.533 45.2115 122.126 45.2115C122.02 44.2237 121.138 43.631 121.138 44.9835L119.923 44.2997C120.561 43.8589 121.518 43.7069 122.278 43.9197C122.932 44.1021 122.78 44.2237 122.582 44.786C122.324 45.5155 123.008 45.2267 123.038 45.8802C122.536 45.7282 122.202 46.5185 122.506 46.868V46.8832ZM130.257 33.0686C129.907 33.1598 130.029 33.5702 129.573 33.3726C129.573 33.5398 129.664 34.2085 129.497 34.2085C128.965 34.2085 128.889 34.3604 128.524 34.7404C129.284 34.9228 128.585 36.1082 128.144 36.2145C127.795 36.3057 128.114 36.7465 127.947 37.0048C127.719 37.3392 127.567 37.5063 127.157 37.6127C127.309 36.944 127.461 36.7313 127.065 36.1842C126.868 35.9106 125.743 36.093 125.409 36.093C125.606 35.8042 125.606 35.0443 125.333 34.8164C125.044 34.5732 125.029 34.4212 124.755 34.6796C124.619 34.8164 124.391 35.1203 124.679 35.2115C125.698 35.5611 124.391 35.8954 124.603 36.3209C124.998 37.1112 125.424 36.8377 126.047 36.5033C126.442 36.2905 126.853 36.4121 126.716 36.9136C126.67 37.0656 126.412 37.6279 126.473 37.7647C126.564 37.9623 127.233 37.9319 127.309 38.1446C127.491 38.6462 126.321 38.7221 125.986 38.8133C125.713 38.8893 126.427 39.8924 126.473 40.0443C125.378 40.0443 125.424 39.9683 125.272 41.0474C125.196 41.6097 124.193 42.3848 125.272 42.6279C125.09 43.3878 124.315 42.7191 123.95 42.5063C123.616 42.3088 123.388 43.8285 123.372 43.9957C122.84 44.0565 122.962 43.631 122.491 43.5702C122.233 43.5398 121.549 43.6158 121.427 43.3422C121.047 42.5063 120.53 41.7921 120.637 40.865C121.214 41.1386 121.777 41.4121 122.354 41.6857C122.552 41.7769 121.64 42.324 122.005 42.7647C122.491 42.2784 123.099 41.3665 123.904 41.7009C123.95 41.0778 122.962 41.169 122.506 41.1082C122.081 41.0322 122.673 40.5459 122.688 40.5611C122.597 40.3027 122.263 40.1963 122.005 40.1811C122.901 39.3452 119.831 38.3878 121.853 38.1294C121.868 38.2966 121.837 38.7677 121.989 38.8437C122.445 39.0717 122.521 39.0717 122.658 39.558C122.749 39.8772 124.056 40.1659 124.056 39.7252C124.056 39.5732 124.147 38.8893 123.98 38.8741C123.403 38.8133 123.388 38.8437 123.175 38.2966C123.038 37.9319 122.856 38.3574 122.688 38.2814C122.369 38.1294 122.278 37.9167 122.081 37.5975C122.05 37.6431 122.035 37.7039 122.005 37.7495C121.883 37.5671 121.853 37.5823 122.005 37.2936C121.321 37.3544 120.758 37.5367 120.105 37.7495C119.938 36.8224 119.953 36.9136 120.865 36.6097C120.257 36.1082 121.275 36.5185 121.351 36.1538C121.442 35.8042 121.305 34.8924 121.017 34.634C120.652 34.3148 119.831 34.6644 119.771 34.0869C119.71 33.5094 119.284 33.1598 119.573 32.5823C119.087 32.8559 118.676 32.6887 118.585 32.1264C119.558 32.1264 119.938 32.0504 120.789 31.5945C120.53 31.2905 119.923 31.5489 119.573 31.5945C119.74 31.093 119.892 31.0018 119.512 30.6522C119.208 30.3635 118.783 30.1659 118.889 29.6948C118.555 29.786 118.631 30.0443 118.585 30.3787C118.008 30.2115 118.479 29.9076 118.266 29.558C118.023 29.1477 118.737 28.4486 118.965 29.0717C119.102 29.4364 119.315 30.0747 119.877 29.8012C120.363 29.558 119.74 29.1629 119.573 29.0109C119.953 28.5854 120.318 28.1598 120.698 27.7495C120.986 27.4304 120.287 26.9896 120.637 26.5793C121.108 26.944 121.351 26.9592 121.214 27.5519C121.108 28.0079 121.488 28.4486 121.701 28.8589C121.944 28.4182 122.111 28.251 122.536 27.9471C122.172 27.9015 121.807 27.9775 121.853 27.4911C122.217 27.4911 122.643 27.4152 122.536 26.9592C123.646 27.2936 124.573 27.0504 125.652 27.4911C125.652 27.0352 125.409 27.02 125.059 26.9744C124.801 26.944 124.527 26.2753 124.406 26.0626C124.178 25.6978 123.859 26.2146 123.616 25.9714C123.357 25.713 123.813 25.5459 124.071 25.7434C124.056 25.4091 124.299 24.7556 124.558 25.2875C124.695 25.5459 124.786 25.5763 125.059 25.713C125.196 25.789 125.12 26.0474 125.302 26.1842C125.956 26.6857 125.91 26.4577 126.457 25.865C126.913 25.3635 127.005 26.5793 127.248 26.7313C127.704 27.0352 127.901 27.6887 128.16 28.175C128.281 28.403 128.16 28.5398 128.053 28.7677C127.977 28.9501 128.175 29.2693 128.251 29.4516C128.372 29.7708 128.646 30.6066 128.935 30.7586C129.375 30.9866 130.105 30.0747 130.302 30.9106C129.725 30.9562 130.044 31.5641 129.619 31.7465C129.117 30.9106 129.011 30.9714 128.023 30.9106C127.992 31.3057 128.783 31.8832 129.011 32.2784C129.345 31.9288 129.71 32.4455 129.619 32.8103C129.999 32.7343 129.892 32.2328 129.923 31.8984C130.135 32.02 130.85 32.1568 130.91 32.2328C131.062 32.4607 131.047 32.7951 131.138 33.0231C130.88 33.0231 130.546 32.9623 130.302 33.0231L130.257 33.0686ZM138.296 50.6826C138.22 50.3331 138.357 50.2419 138.6 50.0291C138.737 49.9076 138.874 49.7708 139.011 49.6492C139.117 49.558 138.919 49.1933 138.98 49.1629C139.239 49.0109 139.968 50.0595 139.892 50.3787C139.36 50.4851 138.828 50.5762 138.296 50.6826ZM145.211 39.5276C144.771 39.5732 144.391 39.5276 144.299 40.0595C143.995 39.7708 143.904 39.2389 144.375 39.0413C145.196 38.6917 144.421 38.6158 144.74 38.1294C145.029 37.7039 145.196 38.6462 145.47 38.7373C146.26 38.9957 145.637 39.2845 145.196 39.5276H145.211ZM143.616 38.3118C143.357 38.251 143.129 37.5367 143.312 37.324C143.57 37.0352 144.117 37.5367 144.391 37.324C145.014 36.8224 144.923 37.7039 144.801 37.7191C144.254 37.7799 144.056 37.9623 143.6 38.3118H143.616ZM145.819 37.324C145.302 36.8984 145.363 36.7769 145.363 36.1082C146.062 36.2145 146.138 36.7313 146.199 37.324C146.078 37.324 145.926 37.3544 145.819 37.324ZM139.892 28.2054C139.436 28.0383 138.904 28.2662 138.448 28.3574C138.676 27.7191 138.661 26.9744 139.299 27.6127C139.603 27.9167 140.12 27.0352 140.576 27.1416C140.348 27.4911 140.12 27.8559 139.892 28.2054ZM141.184 41.8073C140.819 41.1538 140.47 41.1082 140.728 40.3635C140.971 40.5155 140.956 40.7586 141.032 41.0474C142.02 40.7738 142.05 40.789 142.476 41.7313C141.959 41.6249 141.655 41.5185 141.184 41.8073ZM142.476 35.5762C141.913 35.8954 141.761 35.6066 142.172 35.1963C142.597 34.7708 143.008 34.8924 143.616 34.8924C143.266 34.5732 143.646 34.4212 143.585 34.3148C143.388 33.9805 143.205 33.631 143.008 33.2966C142.704 32.7647 141.883 33.9957 141.701 34.2085C141.549 34.0565 141.381 33.8893 141.23 33.7373C141.078 33.6006 141.412 33.4638 141.397 33.2966C141.366 32.8407 141.199 32.7039 141.397 32.2328C141.275 32.2328 141.138 32.1416 141.017 32.1568C141.29 31.6705 141.549 31.5641 141.062 31.2601C140.424 30.8498 140.333 30.8954 140.378 30.1507C140.409 29.6948 140.865 29.2237 140.865 29.9228C140.865 30.3939 141.701 30.3635 141.397 30.9562C141.944 30.789 142.309 30.1963 142.233 29.5884C142.202 29.3908 141.169 28.0687 141.655 27.9775C142.035 27.9015 142.217 28.0687 142.552 28.2662C143.068 28.555 142.871 28.0535 142.84 27.7799C142.825 27.5063 142.628 27.2784 142.612 27.02C142.582 26.6401 142.992 26.5185 142.916 26.1082C143.266 26.2753 143.585 26.5337 143.98 26.4881C143.919 26.8984 143.616 26.9896 143.296 27.172C143.524 27.5823 144.117 27.3392 143.98 27.9319C143.874 28.3878 142.795 28.4638 143.296 29.0717C144.315 28.6614 144.512 28.0839 144.512 27.02C144.816 27.1416 145.135 27.2632 145.439 27.3848C145.652 27.4607 145.971 27.0048 146.321 27.096C147.111 27.2936 146.898 28.2358 147.658 28.2358C148.068 28.2358 148.236 28.1446 148.464 28.479C148.768 28.9349 148.843 28.9349 149.375 29.0565C149.269 29.0261 149.467 30.9714 149.831 30.0595C149.923 30.1051 150.074 30.2115 150.135 30.2875C149.907 30.3939 149.679 30.4851 149.451 30.5914C149.573 30.8498 149.71 31.093 149.831 31.3513C149.33 31.4121 149.406 31.8528 149.831 31.9592C149.664 32.3088 149.269 32.172 149.071 32.4152C148.889 32.6583 149.041 33.1902 149.117 33.4334C149.178 33.631 149.36 35.5155 148.692 35.0139C148.388 34.786 148.813 33.4942 147.932 33.555C147.081 33.6158 147.916 35.0139 147.415 35.3179C147.385 35.3331 145.652 36.2905 145.926 35.6978C146.078 35.3635 146.245 35.1811 146.078 34.862C145.88 34.4668 145.47 35.0899 145.394 35.2419C145.287 35.4395 145.135 35.8498 144.847 35.5611C144.436 35.1507 144.451 35.2875 143.965 35.6066C143.768 35.7434 143.464 36.1538 143.296 36.1082C142.947 36.017 142.856 35.6674 142.461 35.6218L142.476 35.5762ZM143.768 41.868C143.464 41.5641 143.068 41.4121 143.327 41.017C143.585 40.6218 143.813 40.5155 144.147 40.1963C144.497 40.6218 144.755 42.3848 143.768 41.868ZM163.296 38.4638C164.026 38.5854 163.631 38.7829 163.692 39.2389C163.752 39.6796 163.752 40.2267 163.144 40.2115C163.144 39.5428 162.992 39.1021 162.764 38.4638C162.932 38.4638 163.129 38.4334 163.296 38.4638ZM162.612 46.1993C162.339 46.3057 162.05 46.4121 161.761 46.5033C161.974 46.093 162.293 45.6978 162.233 45.2115C162.992 45.2115 162.795 45.6978 162.612 46.1993ZM163.296 44.2389C163.296 43.3726 163.16 43.3726 162.461 42.8559C162.4 42.7039 162.157 42.2936 162.309 42.2176C162.445 42.1568 162.977 42.0352 163.008 42.172C163.068 42.3848 163.099 42.8407 163.266 42.9775C163.464 43.1294 163.828 43.3118 163.935 43.555C164.299 44.406 163.296 44.2085 163.296 44.2389ZM165.348 40.2115C165.302 39.938 165.242 39.6492 165.196 39.3756C165.424 39.3756 166.214 38.9197 166.275 39.2389C166.397 39.8316 165.819 40.0291 165.348 40.1963V40.2115ZM166.716 37.6279C167.005 37.4304 167.354 37.5367 167.4 37.096C168.023 37.2328 167.856 37.4607 168.084 37.9319C168.357 38.479 168.524 38.1902 168.19 38.8589C167.749 39.7252 166.609 38.175 166.716 37.6279Z" fill="white"/>
<path d="M7.15721 37.6273C7.09642 37.2929 7.14201 36.8826 6.85326 36.7914C6.53411 36.8978 6.26055 37.065 5.94141 36.9434C6.12378 37.6273 6.51891 37.5361 7.15721 37.6273Z" fill="white"/>
<path d="M6.32061 35.0445C5.94067 35.0901 5.69751 35.3485 5.63672 35.7284C5.92547 35.7588 6.18383 35.6828 6.32061 35.4245C6.351 35.3029 6.32061 35.1661 6.32061 35.0445Z" fill="white"/>
<path d="M10.1502 32.6588C9.70945 32.8107 9.80063 32.9323 9.73984 33.3731C10.0286 33.4035 10.287 33.3275 10.4237 33.0691C10.4845 32.8259 10.4389 32.5524 10.1502 32.6588Z" fill="white"/>
<path d="M10.4244 36.4127C10.1509 36.1391 9.9837 36.5799 10.0445 36.7926C10.2573 36.8534 10.698 36.6862 10.4244 36.4127Z" fill="white"/>
<path d="M13.8436 36.792C13.9804 36.2905 14.4515 35.5458 13.6916 35.4242C13.8892 35.9409 13.2661 36.3817 13.8436 36.792Z" fill="white"/>
<path d="M13.2349 35.5758C12.7942 35.5758 12.4295 35.7582 12.1711 36.1077C12.4295 36.3053 12.6726 36.2597 13.007 36.2597C13.3109 36.1989 13.4781 35.5758 13.2349 35.5758Z" fill="white"/>
<path d="M13.3114 38.311C13.6913 38.0527 13.2354 37.5208 12.8555 37.6272C12.8555 37.8399 12.9467 38.5694 13.3114 38.311Z" fill="white"/>
<path d="M11.6393 32.9929C11.6393 32.8257 11.6697 32.6282 11.6393 32.461C11.5329 32.3394 11.3809 32.2482 11.2594 32.157C11.2594 32.537 11.1226 32.9473 11.6393 32.9929Z" fill="white"/>
<path d="M8.67662 32.7648C8.55504 32.8864 7.73437 33.7678 8.52465 33.6767C8.87419 33.6311 9.22373 32.5368 8.67662 32.7648Z" fill="white"/>
<path d="M23.5696 69.6643C23.3721 69.6339 23.1593 69.6187 22.9617 69.5883C23.2657 70.2418 23.2505 70.8497 23.9344 71.1536C24.2535 71.2904 24.1167 70.5761 24.0863 70.4697C24.0104 70.0594 23.9344 69.9226 23.5544 69.6795L23.5696 69.6643Z" fill="white"/>
<path d="M7.68828 37.6282C7.77947 37.689 7.90105 37.7346 7.99223 37.7801C8.06822 37.5066 7.99223 37.3242 7.68828 37.3242V37.6282Z" fill="white"/>
<path d="M9.89248 38.1606C9.72531 38.115 9.52774 38.0238 9.36057 38.0086C9.36057 38.3429 9.40616 38.5861 9.20859 38.8445C9.69491 38.9964 9.74051 38.5101 9.89248 38.1606Z" fill="white"/>
<path d="M8.90363 34.3602C8.64527 34.3602 8.49329 34.4969 8.37171 34.7401C8.03737 34.6793 7.2015 34.4209 6.92794 34.8161C6.79117 35.0288 7.30788 35.9559 7.68782 35.9559C7.68782 35.0896 8.66047 35.1656 8.90363 34.3602Z" fill="white"/>
<path d="M25.6818 70.3486C25.5754 70.3182 25.4842 70.303 25.3778 70.2727C25.1347 70.6982 25.2563 70.835 25.6818 71.1845C25.8034 71.0021 25.9401 70.835 26.0617 70.6526C25.8338 70.6526 25.8338 70.5006 25.6818 70.3486Z" fill="white"/>
<path d="M26.3665 69.3459C25.5003 69.2243 26.1689 68.4796 26.4425 67.9173C26.3361 67.6438 25.9106 67.1575 25.6066 67.4614C25.4091 67.659 25.6522 68.3885 25.6826 68.6772C24.8316 68.9204 25.0595 67.7046 24.3148 68.7532C24.8012 69.042 25.4395 69.3003 24.9987 69.969C25.2571 69.8626 25.5458 69.6955 25.8346 69.6499C25.941 69.6499 26.8072 69.4067 26.3665 69.3459Z" fill="white"/>
<path d="M79.984 38.2366C79.984 38.2366 80.0904 38.1302 80.136 38.0846C80.1816 37.7654 79.7713 37.3855 79.8625 37.1727C80.1056 36.6864 80.0904 36.5648 79.5281 36.5648C79.2546 36.5648 79.3761 37.2335 79.3761 37.3855C79.3761 37.7654 79.7105 37.963 79.984 38.2214V38.2366Z" fill="white"/>
<path d="M76.4877 46.6554C75.5911 46.6554 75.0895 46.5794 74.968 47.5672C75.3479 47.5672 77.0196 47.8104 77.2476 47.5672C77.3692 47.4304 77.2476 46.6098 77.2476 46.397C77.2476 46.2146 76.5637 46.6098 76.4877 46.6554Z" fill="white"/>
<path d="M77.932 46.3508C78.2056 46.9131 78.2664 47.3842 78.9199 47.5666C79.239 47.0955 78.9199 46.7915 78.6159 46.4268C78.388 46.3964 78.16 46.3812 77.932 46.3508Z" fill="white"/>
<path d="M120.682 28.2058C120.089 29.0872 121.944 28.0994 120.682 28.2058V28.2058Z" fill="white"/>
<path d="M146.883 31.625C146.519 31.2906 146.169 32.0505 146.199 32.3088C146.427 32.324 147.294 32.0049 146.883 31.625Z" fill="white"/>
<path d="M147.567 29.8777C147.491 29.4522 147.171 28.9506 146.731 28.8898C146.655 29.4825 147.126 29.6193 147.567 29.8777Z" fill="white"/>
<path d="M146.427 30.7888C145.485 30.5304 146.61 31.655 146.427 30.7888V30.7888Z" fill="white"/>
<path d="M144.299 30.4084C144.42 29.9372 144.983 29.7701 145.363 30.0284C145.104 29.4813 144.36 29.4813 143.843 29.3445C143.843 29.8157 143.904 30.1196 144.299 30.4084Z" fill="white"/>
<path d="M120.454 29.8775C120.621 30.227 120.454 30.6678 120.758 30.9413C120.971 30.5614 121.214 29.6495 120.454 29.8775Z" fill="white"/>
<path d="M142.248 31.2452C142.521 31.2604 142.673 31.0477 142.78 30.7893C142.476 30.7285 142.308 30.9413 142.248 31.2452Z" fill="white"/>
<path d="M141.563 32.4608C141.943 32.704 142.247 32.704 142.627 32.4608C142.338 32.2177 142.11 31.9289 141.715 31.9289C141.67 32.1265 141.715 32.2633 141.563 32.4608Z" fill="white"/>
<path d="M148.326 31.4731C149.026 32.0962 149.269 30.85 149.314 30.4093C148.889 30.4397 148.463 30.0749 148.098 29.8773C147.962 30.1661 147.886 30.4852 147.795 30.7892C148.083 30.8196 148.174 31.2147 148.326 31.4731Z" fill="white"/>
<path d="M126.306 27.8258C126.291 28.1601 126.762 29.2999 126.99 29.3455C127.309 29.4215 127.598 29.0112 127.765 28.8136C127.917 28.6313 127.385 28.4945 127.522 28.2057C127.066 28.1753 126.716 28.0082 126.306 27.8258Z" fill="white"/>
<path d="M123.038 35.7275C122.521 35.0588 122.323 34.3446 121.792 35.2716C121.427 35.8947 123.25 35.4692 122.81 36.4114C123.174 36.381 123.995 36.4722 124.178 36.0315C124.542 35.1804 123.372 35.606 123.038 35.7275Z" fill="white"/>
<path d="M124.406 28.2053C124.33 28.0382 124.285 27.8254 124.178 27.6734C123.692 27.5974 123.707 28.3421 124.406 28.2053Z" fill="white"/>
<path d="M125.47 29.8778C125.318 30.2273 125.014 30.5161 125.394 30.7896C125.5 30.4553 125.591 30.1361 125.698 29.8018C125.591 29.7714 125.5 29.7562 125.394 29.7258C125.424 29.7714 125.439 29.8322 125.47 29.8778Z" fill="white"/>
<path d="M123.19 37.0966C123.357 37.3549 123.357 38.282 123.874 38.0084C124.269 37.8109 123.691 36.3975 123.19 37.0966Z" fill="white"/>
<path d="M124.634 28.9653C124.482 28.9805 124.027 28.9653 124.027 29.1172C124.027 29.482 123.935 29.5428 124.3 29.6188C124.726 29.71 125.182 28.9197 124.619 28.9501L124.634 28.9653Z" fill="white"/>
<path d="M185.09 32.916C185.211 33.2352 185.424 33.5239 185.166 33.8279C185.774 33.7975 185.667 33.22 185.622 32.8096C185.53 32.1561 185.667 31.7306 184.938 31.6242C185.12 32.1105 184.497 32.5969 185.09 32.916Z" fill="white"/>
<path d="M182.201 28.1296C182.095 27.9168 181.913 27.8104 181.67 27.8256C181.67 28.312 181.821 28.9351 182.201 28.1296Z" fill="white"/>
<path d="M186.306 30.2564C187.339 29.998 185.956 29.4205 185.622 29.3445C185.622 29.6029 185.5 29.8309 185.318 30.0284C185.622 30.302 185.926 30.2564 186.306 30.2564Z" fill="white"/>
<path d="M187.369 33.5241C187.217 33.4177 187.004 33.3721 186.837 33.2961C186.7 33.7976 187.339 33.828 187.369 33.5241Z" fill="white"/>
<path d="M186.078 32.4611C185.987 32.8715 186.23 33.4034 186.534 32.8715C186.823 32.3699 186.397 31.838 186.078 32.4611Z" fill="white"/>
<path d="M188.13 36.2606C188.13 36.2606 188.084 36.1542 188.054 36.1086C187.81 36.1694 187.613 36.3214 187.598 36.5645C187.841 36.5645 188.023 36.4733 188.13 36.2606Z" fill="white"/>
</g>
</g>
<defs>
<clipPath id="clip0_277_3746">
<rect width="200" height="90.4" fill="white"/>
</clipPath>
<clipPath id="clip1_277_3746">
<rect width="200" height="90.1672" fill="white"/>
</clipPath>
</defs>
</svg>
